<mxfile host="Electron" modified="2024-05-06T06:26:04.758Z" agent="Mozilla/5.0 (Windows NT 10.0; Win64; x64) AppleWebKit/537.36 (KHTML, like Gecko) draw.io/24.2.5 Chrome/120.0.6099.109 Electron/28.1.0 Safari/537.36" etag="N45LjGiBZPiy8_FCNeA_" version="24.2.5" type="device" pages="5">
  <diagram id="LiNvfbCPaJ_zFYgMd4o1" name="Apico">
    <mxGraphModel dx="3374" dy="1936" grid="1" gridSize="10" guides="1" tooltips="1" connect="1" arrows="1" fold="1" page="1" pageScale="1" pageWidth="850" pageHeight="1100" math="0" shadow="0">
      <root>
        <mxCell id="0" />
        <mxCell id="1" parent="0" />
        <mxCell id="40" style="edgeStyle=orthogonalEdgeStyle;curved=1;html=1;entryX=0.5;entryY=1;entryDx=0;entryDy=0;" parent="1" source="2" target="6" edge="1">
          <mxGeometry relative="1" as="geometry" />
        </mxCell>
        <mxCell id="2" value="frontend" style="rounded=1;whiteSpace=wrap;html=1;fillColor=#dae8fc;strokeColor=#6c8ebf;" parent="1" vertex="1">
          <mxGeometry x="80" y="40" width="120" height="60" as="geometry" />
        </mxCell>
        <mxCell id="96" style="edgeStyle=entityRelationEdgeStyle;html=1;" parent="1" source="3" target="95" edge="1">
          <mxGeometry relative="1" as="geometry" />
        </mxCell>
        <mxCell id="3" value="locals" style="rounded=1;whiteSpace=wrap;html=1;fillColor=#d5e8d4;strokeColor=#82b366;" parent="1" vertex="1">
          <mxGeometry x="80" y="110" width="120" height="60" as="geometry" />
        </mxCell>
        <mxCell id="4XU-YK2BNLV_SlYp-IQn-98" style="edgeStyle=orthogonalEdgeStyle;html=1;entryX=1;entryY=0.5;entryDx=0;entryDy=0;curved=1;" parent="1" source="4" target="4XU-YK2BNLV_SlYp-IQn-96" edge="1">
          <mxGeometry relative="1" as="geometry" />
        </mxCell>
        <mxCell id="4" value="middlewares" style="rounded=1;whiteSpace=wrap;html=1;fillColor=#f8cecc;strokeColor=#b85450;" parent="1" vertex="1">
          <mxGeometry x="80" y="180" width="120" height="60" as="geometry" />
        </mxCell>
        <mxCell id="4XU-YK2BNLV_SlYp-IQn-184" style="edgeStyle=orthogonalEdgeStyle;curved=1;html=1;entryX=0;entryY=0.5;entryDx=0;entryDy=0;fontSize=16;" parent="1" source="5" target="4XU-YK2BNLV_SlYp-IQn-99" edge="1">
          <mxGeometry relative="1" as="geometry" />
        </mxCell>
        <mxCell id="5" value="routes" style="rounded=1;whiteSpace=wrap;html=1;fillColor=#e1d5e7;strokeColor=#9673a6;" parent="1" vertex="1">
          <mxGeometry x="80" y="250" width="120" height="60" as="geometry" />
        </mxCell>
        <mxCell id="6" value="frontend" style="swimlane;whiteSpace=wrap;html=1;fillColor=#dae8fc;strokeColor=#6c8ebf;" parent="1" vertex="1">
          <mxGeometry x="45" y="-340" width="190" height="310" as="geometry" />
        </mxCell>
        <mxCell id="8" value="" style="image;html=1;image=img/lib/clip_art/general/Full_Folder_128x128.png" parent="6" vertex="1">
          <mxGeometry x="30" y="30" width="30" height="40" as="geometry" />
        </mxCell>
        <mxCell id="12" value="" style="image;html=1;image=img/lib/clip_art/general/Full_Folder_128x128.png" parent="6" vertex="1">
          <mxGeometry x="30" y="150" width="30" height="40" as="geometry" />
        </mxCell>
        <mxCell id="13" value="shared" style="text;html=1;align=center;verticalAlign=middle;resizable=0;points=[];autosize=1;strokeColor=none;fillColor=none;" parent="6" vertex="1">
          <mxGeometry x="60" y="160" width="60" height="30" as="geometry" />
        </mxCell>
        <mxCell id="14" value="layouts" style="text;html=1;align=center;verticalAlign=middle;resizable=0;points=[];autosize=1;strokeColor=none;fillColor=none;" parent="6" vertex="1">
          <mxGeometry x="80" y="190" width="60" height="30" as="geometry" />
        </mxCell>
        <mxCell id="15" value="" style="image;html=1;image=img/lib/clip_art/general/Full_Folder_128x128.png" parent="6" vertex="1">
          <mxGeometry x="50" y="180" width="30" height="40" as="geometry" />
        </mxCell>
        <mxCell id="16" value="partials" style="text;html=1;align=center;verticalAlign=middle;resizable=0;points=[];autosize=1;strokeColor=none;fillColor=none;" parent="6" vertex="1">
          <mxGeometry x="80" y="230" width="60" height="30" as="geometry" />
        </mxCell>
        <mxCell id="17" value="" style="image;html=1;image=img/lib/clip_art/general/Full_Folder_128x128.png" parent="6" vertex="1">
          <mxGeometry x="50" y="220" width="30" height="40" as="geometry" />
        </mxCell>
        <mxCell id="18" value="apps" style="text;html=1;align=center;verticalAlign=middle;resizable=0;points=[];autosize=1;strokeColor=#d6b656;fillColor=#fff2cc;" parent="6" vertex="1">
          <mxGeometry x="85" y="80" width="50" height="30" as="geometry" />
        </mxCell>
        <mxCell id="19" value="" style="image;html=1;image=img/lib/clip_art/general/Full_Folder_128x128.png" parent="6" vertex="1">
          <mxGeometry x="50" y="70" width="30" height="40" as="geometry" />
        </mxCell>
        <mxCell id="20" value="core" style="text;html=1;align=center;verticalAlign=middle;resizable=0;points=[];autosize=1;strokeColor=none;fillColor=none;" parent="6" vertex="1">
          <mxGeometry x="85" y="120" width="50" height="30" as="geometry" />
        </mxCell>
        <mxCell id="21" value="" style="image;html=1;image=img/lib/clip_art/general/Full_Folder_128x128.png" parent="6" vertex="1">
          <mxGeometry x="50" y="110" width="30" height="40" as="geometry" />
        </mxCell>
        <mxCell id="9" value="dist" style="text;html=1;align=center;verticalAlign=middle;resizable=0;points=[];autosize=1;strokeColor=none;fillColor=none;" parent="1" vertex="1">
          <mxGeometry x="110" y="-305" width="40" height="30" as="geometry" />
        </mxCell>
        <mxCell id="23" style="edgeStyle=orthogonalEdgeStyle;html=1;entryX=0;entryY=0.5;entryDx=0;entryDy=0;curved=1;" parent="1" source="22" target="19" edge="1">
          <mxGeometry relative="1" as="geometry" />
        </mxCell>
        <mxCell id="22" value="&lt;h1&gt;Apps&lt;/h1&gt;&lt;div&gt;Here will be all your HTML/CSS/JS ( frontend ) apps.&lt;/div&gt;&lt;div&gt;Every folder under apps folder will get an unique URL.&lt;/div&gt;&lt;div&gt;You could have more then one level of subfolders:&lt;/div&gt;&lt;div&gt;f.e the following strucutre:&lt;/div&gt;&lt;div&gt;---&amp;nbsp; apps&lt;br&gt;&lt;/div&gt;&lt;div&gt;------&amp;nbsp; auth&lt;br&gt;&lt;/div&gt;&lt;div&gt;--------&amp;nbsp; signin&lt;br&gt;&lt;/div&gt;&lt;div&gt;will get a URL like : mydomain.com/auth/signin&lt;/div&gt;&lt;div&gt;&lt;br&gt;&lt;/div&gt;&lt;div&gt;&lt;br&gt;&lt;/div&gt;" style="text;html=1;strokeColor=#d6b656;fillColor=#fff2cc;spacing=5;spacingTop=-20;whiteSpace=wrap;overflow=hidden;rounded=0;" parent="1" vertex="1">
          <mxGeometry x="-425" y="-540" width="310" height="190" as="geometry" />
        </mxCell>
        <mxCell id="24" value="app structure" style="swimlane;whiteSpace=wrap;html=1;fillColor=#fff2cc;strokeColor=#d6b656;" parent="1" vertex="1">
          <mxGeometry x="305" y="-510" width="175" height="200" as="geometry" />
        </mxCell>
        <mxCell id="26" value="" style="verticalLabelPosition=bottom;html=1;verticalAlign=top;align=center;strokeColor=none;fillColor=#00BEF2;shape=mxgraph.azure.script_file;pointerEvents=1;" parent="24" vertex="1">
          <mxGeometry x="15" y="40" width="35" height="40" as="geometry" />
        </mxCell>
        <mxCell id="27" value="config.json" style="text;html=1;align=center;verticalAlign=middle;resizable=0;points=[];autosize=1;strokeColor=none;fillColor=none;" parent="24" vertex="1">
          <mxGeometry x="47.5" y="45" width="80" height="30" as="geometry" />
        </mxCell>
        <mxCell id="28" value="index.ejs" style="text;html=1;align=center;verticalAlign=middle;resizable=0;points=[];autosize=1;strokeColor=none;fillColor=none;" parent="24" vertex="1">
          <mxGeometry x="52.5" y="80" width="70" height="30" as="geometry" />
        </mxCell>
        <mxCell id="29" value="" style="verticalLabelPosition=bottom;html=1;verticalAlign=top;align=center;strokeColor=none;fillColor=#00BEF2;shape=mxgraph.azure.script_file;pointerEvents=1;" parent="24" vertex="1">
          <mxGeometry x="15" y="75" width="35" height="40" as="geometry" />
        </mxCell>
        <mxCell id="30" value="index.js" style="text;html=1;align=center;verticalAlign=middle;resizable=0;points=[];autosize=1;strokeColor=none;fillColor=none;" parent="24" vertex="1">
          <mxGeometry x="57.5" y="120" width="60" height="30" as="geometry" />
        </mxCell>
        <mxCell id="31" value="" style="verticalLabelPosition=bottom;html=1;verticalAlign=top;align=center;strokeColor=none;fillColor=#00BEF2;shape=mxgraph.azure.script_file;pointerEvents=1;" parent="24" vertex="1">
          <mxGeometry x="15" y="115" width="35" height="40" as="geometry" />
        </mxCell>
        <mxCell id="32" value="index.css" style="text;html=1;align=center;verticalAlign=middle;resizable=0;points=[];autosize=1;strokeColor=none;fillColor=none;" parent="24" vertex="1">
          <mxGeometry x="52.5" y="155" width="70" height="30" as="geometry" />
        </mxCell>
        <mxCell id="33" value="" style="verticalLabelPosition=bottom;html=1;verticalAlign=top;align=center;strokeColor=none;fillColor=#00BEF2;shape=mxgraph.azure.script_file;pointerEvents=1;" parent="24" vertex="1">
          <mxGeometry x="15" y="150" width="35" height="40" as="geometry" />
        </mxCell>
        <mxCell id="49" value="" style="verticalLabelPosition=bottom;html=1;verticalAlign=top;align=center;strokeColor=none;fillColor=#00BEF2;shape=mxgraph.azure.script_file;pointerEvents=1;" parent="24" vertex="1">
          <mxGeometry x="15" y="40" width="35" height="40" as="geometry" />
        </mxCell>
        <mxCell id="50" value="config.json" style="text;html=1;align=center;verticalAlign=middle;resizable=0;points=[];autosize=1;strokeColor=none;fillColor=none;" parent="24" vertex="1">
          <mxGeometry x="47.5" y="45" width="80" height="30" as="geometry" />
        </mxCell>
        <mxCell id="51" value="" style="verticalLabelPosition=bottom;html=1;verticalAlign=top;align=center;strokeColor=none;fillColor=#00BEF2;shape=mxgraph.azure.script_file;pointerEvents=1;" parent="24" vertex="1">
          <mxGeometry x="15" y="40" width="35" height="40" as="geometry" />
        </mxCell>
        <mxCell id="52" value="config.json" style="text;html=1;align=center;verticalAlign=middle;resizable=0;points=[];autosize=1;strokeColor=none;fillColor=none;" parent="24" vertex="1">
          <mxGeometry x="47.5" y="45" width="80" height="30" as="geometry" />
        </mxCell>
        <mxCell id="53" value="index.ejs" style="text;html=1;align=center;verticalAlign=middle;resizable=0;points=[];autosize=1;strokeColor=none;fillColor=none;" parent="24" vertex="1">
          <mxGeometry x="52.5" y="80" width="70" height="30" as="geometry" />
        </mxCell>
        <mxCell id="54" value="" style="verticalLabelPosition=bottom;html=1;verticalAlign=top;align=center;strokeColor=none;fillColor=#00BEF2;shape=mxgraph.azure.script_file;pointerEvents=1;" parent="24" vertex="1">
          <mxGeometry x="15" y="115" width="35" height="40" as="geometry" />
        </mxCell>
        <mxCell id="55" value="index.js" style="text;html=1;align=center;verticalAlign=middle;resizable=0;points=[];autosize=1;strokeColor=none;fillColor=none;" parent="24" vertex="1">
          <mxGeometry x="57.5" y="120" width="60" height="30" as="geometry" />
        </mxCell>
        <mxCell id="25" style="edgeStyle=orthogonalEdgeStyle;curved=1;html=1;entryX=0;entryY=0.5;entryDx=0;entryDy=0;" parent="1" source="18" target="24" edge="1">
          <mxGeometry relative="1" as="geometry" />
        </mxCell>
        <mxCell id="35" style="edgeStyle=orthogonalEdgeStyle;curved=1;html=1;" parent="1" source="34" target="27" edge="1">
          <mxGeometry relative="1" as="geometry" />
        </mxCell>
        <mxCell id="34" value="&lt;h1&gt;Config&lt;/h1&gt;&lt;div&gt;This is a global config for your app. Here you could specify the title of the page and the layout for your app.&lt;/div&gt;" style="text;html=1;strokeColor=#6c8ebf;fillColor=#dae8fc;spacing=5;spacingTop=-20;whiteSpace=wrap;overflow=hidden;rounded=0;" parent="1" vertex="1">
          <mxGeometry x="520" y="-600" width="240" height="120" as="geometry" />
        </mxCell>
        <mxCell id="37" style="edgeStyle=orthogonalEdgeStyle;curved=1;html=1;" parent="1" source="36" target="14" edge="1">
          <mxGeometry relative="1" as="geometry" />
        </mxCell>
        <mxCell id="36" value="&lt;h1&gt;Layouts&lt;/h1&gt;&lt;div&gt;Includes all layouts that you can use for your apps. The default layout is called default.ejs. If you want to use a custome layout you have to add it to the shared folder first, Then specify the layout inside the config.json file from the app dir.&lt;/div&gt;" style="text;html=1;strokeColor=#b85450;fillColor=#f8cecc;spacing=5;spacingTop=-20;whiteSpace=wrap;overflow=hidden;rounded=0;" parent="1" vertex="1">
          <mxGeometry x="425" y="-230" width="285" height="140" as="geometry" />
        </mxCell>
        <mxCell id="39" style="edgeStyle=orthogonalEdgeStyle;curved=1;html=1;entryX=0;entryY=0.5;entryDx=0;entryDy=0;" parent="1" source="38" target="17" edge="1">
          <mxGeometry relative="1" as="geometry" />
        </mxCell>
        <mxCell id="38" value="&lt;h1&gt;Partials&lt;/h1&gt;&lt;div&gt;When you need to ruse some html code, put it inside Partials and include it to your .ejs file using &amp;lt;%- include(&quot;path/tp/partials&quot;) %&amp;gt; .&lt;/div&gt;" style="text;html=1;strokeColor=#82b366;fillColor=#d5e8d4;spacing=5;spacingTop=-20;whiteSpace=wrap;overflow=hidden;rounded=0;" parent="1" vertex="1">
          <mxGeometry x="-330" y="-160" width="280" height="120" as="geometry" />
        </mxCell>
        <mxCell id="42" value="domain.com/auth/signin" style="swimlane;whiteSpace=wrap;html=1;" parent="1" vertex="1">
          <mxGeometry x="845" y="-780" width="1280" height="610" as="geometry" />
        </mxCell>
        <mxCell id="43" value="" style="image;html=1;image=img/lib/clip_art/general/Full_Folder_128x128.png" parent="42" vertex="1">
          <mxGeometry x="40" y="90" width="30" height="40" as="geometry" />
        </mxCell>
        <mxCell id="44" value="apps" style="text;html=1;align=center;verticalAlign=middle;resizable=0;points=[];autosize=1;strokeColor=#666666;fillColor=#f5f5f5;fontColor=#333333;" parent="42" vertex="1">
          <mxGeometry x="75" y="100" width="50" height="30" as="geometry" />
        </mxCell>
        <mxCell id="45" value="" style="image;html=1;image=img/lib/clip_art/general/Full_Folder_128x128.png" parent="42" vertex="1">
          <mxGeometry x="57.5" y="140" width="30" height="40" as="geometry" />
        </mxCell>
        <mxCell id="46" value="auth" style="text;html=1;align=center;verticalAlign=middle;resizable=0;points=[];autosize=1;strokeColor=#666666;fillColor=#f5f5f5;fontColor=#333333;" parent="42" vertex="1">
          <mxGeometry x="92.5" y="150" width="50" height="30" as="geometry" />
        </mxCell>
        <mxCell id="47" value="" style="image;html=1;image=img/lib/clip_art/general/Full_Folder_128x128.png" parent="42" vertex="1">
          <mxGeometry x="75" y="190" width="30" height="40" as="geometry" />
        </mxCell>
        <mxCell id="48" value="sigin" style="text;html=1;align=center;verticalAlign=middle;resizable=0;points=[];autosize=1;strokeColor=#666666;fillColor=#f5f5f5;fontColor=#333333;" parent="42" vertex="1">
          <mxGeometry x="110" y="200" width="50" height="30" as="geometry" />
        </mxCell>
        <mxCell id="56" value="" style="verticalLabelPosition=bottom;html=1;verticalAlign=top;align=center;strokeColor=none;fillColor=#00BEF2;shape=mxgraph.azure.script_file;pointerEvents=1;" parent="42" vertex="1">
          <mxGeometry x="120" y="240" width="35" height="40" as="geometry" />
        </mxCell>
        <mxCell id="57" value="config.json" style="text;html=1;align=center;verticalAlign=middle;resizable=0;points=[];autosize=1;strokeColor=none;fillColor=none;" parent="42" vertex="1">
          <mxGeometry x="152.5" y="245" width="80" height="30" as="geometry" />
        </mxCell>
        <mxCell id="58" value="index.ejs" style="text;html=1;align=center;verticalAlign=middle;resizable=0;points=[];autosize=1;strokeColor=none;fillColor=none;" parent="42" vertex="1">
          <mxGeometry x="157.5" y="280" width="70" height="30" as="geometry" />
        </mxCell>
        <mxCell id="59" value="" style="verticalLabelPosition=bottom;html=1;verticalAlign=top;align=center;strokeColor=none;fillColor=#00BEF2;shape=mxgraph.azure.script_file;pointerEvents=1;" parent="42" vertex="1">
          <mxGeometry x="120" y="315" width="35" height="40" as="geometry" />
        </mxCell>
        <mxCell id="60" value="index.js" style="text;html=1;align=center;verticalAlign=middle;resizable=0;points=[];autosize=1;strokeColor=none;fillColor=none;" parent="42" vertex="1">
          <mxGeometry x="162.5" y="320" width="60" height="30" as="geometry" />
        </mxCell>
        <mxCell id="61" value="index.css" style="text;html=1;align=center;verticalAlign=middle;resizable=0;points=[];autosize=1;strokeColor=none;fillColor=none;" parent="42" vertex="1">
          <mxGeometry x="157.5" y="355" width="70" height="30" as="geometry" />
        </mxCell>
        <mxCell id="62" value="" style="verticalLabelPosition=bottom;html=1;verticalAlign=top;align=center;strokeColor=none;fillColor=#00BEF2;shape=mxgraph.azure.script_file;pointerEvents=1;" parent="42" vertex="1">
          <mxGeometry x="120" y="350" width="35" height="40" as="geometry" />
        </mxCell>
        <mxCell id="63" value="" style="verticalLabelPosition=bottom;html=1;verticalAlign=top;align=center;strokeColor=none;fillColor=#00BEF2;shape=mxgraph.azure.script_file;pointerEvents=1;" parent="42" vertex="1">
          <mxGeometry x="120" y="275" width="35" height="40" as="geometry" />
        </mxCell>
        <mxCell id="93" style="edgeStyle=entityRelationEdgeStyle;html=1;entryX=0.111;entryY=0.5;entryDx=0;entryDy=0;entryPerimeter=0;fillColor=#f8cecc;strokeColor=#b85450;" parent="42" source="64" target="69" edge="1">
          <mxGeometry relative="1" as="geometry" />
        </mxCell>
        <mxCell id="64" value="apps/auth/signin/index.ejs" style="swimlane;whiteSpace=wrap;html=1;fillColor=#f8cecc;strokeColor=#b85450;" parent="42" vertex="1">
          <mxGeometry x="320" y="60" width="380" height="150" as="geometry" />
        </mxCell>
        <mxCell id="67" value="Some content" style="text;html=1;align=center;verticalAlign=middle;resizable=0;points=[];autosize=1;strokeColor=none;fillColor=none;" parent="64" vertex="1">
          <mxGeometry x="130" y="75" width="100" height="30" as="geometry" />
        </mxCell>
        <mxCell id="65" value="apps/auth/signin/config.json" style="swimlane;whiteSpace=wrap;html=1;" parent="42" vertex="1">
          <mxGeometry x="860" y="150" width="200" height="105" as="geometry" />
        </mxCell>
        <mxCell id="66" value="{ &lt;br&gt;&lt;div style=&quot;&quot;&gt;&lt;/div&gt;&lt;div style=&quot;&quot;&gt;&lt;div style=&quot;border-color: var(--border-color);&quot;&gt;&lt;span style=&quot;border-color: var(--border-color); background-color: initial;&quot;&gt;title:&quot;Sig in&quot;,&lt;/span&gt;&lt;/div&gt;&lt;span style=&quot;text-align: center;&quot;&gt;layout:&quot;shared/layouts/auth&quot;&lt;/span&gt;&lt;br&gt;&lt;/div&gt;&amp;nbsp;}" style="text;html=1;align=left;verticalAlign=middle;resizable=0;points=[];autosize=1;strokeColor=none;fillColor=none;" parent="65" vertex="1">
          <mxGeometry x="15" y="25" width="170" height="70" as="geometry" />
        </mxCell>
        <mxCell id="68" value="shared/layouts/auth.ejs" style="swimlane;whiteSpace=wrap;html=1;" parent="42" vertex="1">
          <mxGeometry x="860" y="325" width="275" height="265" as="geometry" />
        </mxCell>
        <mxCell id="69" value="&amp;lt;html&amp;gt;&lt;br&gt;&amp;nbsp;&amp;lt;meta&amp;gt;&lt;br&gt;..........&lt;br&gt;&amp;lt;body&amp;gt;&lt;br&gt;&lt;span style=&quot;&quot;&gt;&lt;/span&gt;&amp;nbsp; &amp;nbsp; &amp;nbsp; &amp;lt;%- include(&quot;shared/partials/header&quot;) %&amp;gt;&lt;br&gt;&amp;nbsp; &amp;nbsp; &amp;nbsp;&lt;br&gt;&lt;span style=&quot;white-space: pre;&quot;&gt;&#x9;&lt;/span&gt;&amp;lt;%- body %&amp;gt;&lt;br&gt;&lt;br&gt;&lt;span style=&quot;&quot;&gt;&#x9;&lt;/span&gt;.......&lt;br&gt;.........&lt;br&gt;&lt;br&gt;&amp;nbsp; &amp;nbsp; &amp;nbsp; &amp;nbsp; &amp;nbsp;&amp;lt;%- include(&quot;shared/partials/footer&quot;) %&amp;gt;&lt;br&gt;&amp;lt;/body&amp;gt;&lt;br&gt;&amp;lt;/html&amp;lt;" style="text;html=1;align=left;verticalAlign=middle;resizable=0;points=[];autosize=1;strokeColor=none;fillColor=none;" parent="68" vertex="1">
          <mxGeometry x="5" y="25" width="270" height="220" as="geometry" />
        </mxCell>
        <mxCell id="74" style="edgeStyle=orthogonalEdgeStyle;curved=1;html=1;entryX=0.547;entryY=0.033;entryDx=0;entryDy=0;entryPerimeter=0;exitX=0.481;exitY=0.001;exitDx=0;exitDy=0;exitPerimeter=0;" parent="42" source="71" target="42" edge="1">
          <mxGeometry relative="1" as="geometry" />
        </mxCell>
        <mxCell id="75" style="edgeStyle=orthogonalEdgeStyle;curved=1;html=1;entryX=1;entryY=0.25;entryDx=0;entryDy=0;startArrow=none;" parent="42" source="76" target="64" edge="1">
          <mxGeometry relative="1" as="geometry" />
        </mxCell>
        <mxCell id="78" style="edgeStyle=orthogonalEdgeStyle;curved=1;html=1;entryX=0.5;entryY=0;entryDx=0;entryDy=0;startArrow=none;" parent="42" source="79" target="65" edge="1">
          <mxGeometry relative="1" as="geometry" />
        </mxCell>
        <mxCell id="71" value="Apico" style="text;html=1;align=center;verticalAlign=middle;resizable=0;points=[];autosize=1;strokeColor=#82b366;fillColor=#d5e8d4;" parent="42" vertex="1">
          <mxGeometry x="890" y="50" width="50" height="30" as="geometry" />
        </mxCell>
        <mxCell id="77" value="" style="edgeStyle=orthogonalEdgeStyle;curved=1;html=1;entryX=1;entryY=0.25;entryDx=0;entryDy=0;endArrow=none;" parent="42" source="71" target="76" edge="1">
          <mxGeometry relative="1" as="geometry">
            <mxPoint x="1735" y="-715" as="sourcePoint" />
            <mxPoint x="1545" y="-682.5" as="targetPoint" />
          </mxGeometry>
        </mxCell>
        <mxCell id="76" value="Exists" style="text;html=1;align=center;verticalAlign=middle;resizable=0;points=[];autosize=1;strokeColor=none;fillColor=none;" parent="42" vertex="1">
          <mxGeometry x="765" y="70" width="60" height="30" as="geometry" />
        </mxCell>
        <mxCell id="80" value="" style="edgeStyle=orthogonalEdgeStyle;curved=1;html=1;entryX=0.5;entryY=0;entryDx=0;entryDy=0;endArrow=none;" parent="42" source="71" target="79" edge="1">
          <mxGeometry relative="1" as="geometry">
            <mxPoint x="1760.0769230769233" y="-700" as="sourcePoint" />
            <mxPoint x="1805" y="-630" as="targetPoint" />
          </mxGeometry>
        </mxCell>
        <mxCell id="79" value="Exists" style="text;html=1;align=center;verticalAlign=middle;resizable=0;points=[];autosize=1;strokeColor=none;fillColor=none;" parent="42" vertex="1">
          <mxGeometry x="895" y="90" width="60" height="30" as="geometry" />
        </mxCell>
        <mxCell id="81" style="edgeStyle=orthogonalEdgeStyle;curved=1;html=1;entryX=0.5;entryY=0;entryDx=0;entryDy=0;startArrow=none;" parent="42" source="83" target="68" edge="1">
          <mxGeometry relative="1" as="geometry" />
        </mxCell>
        <mxCell id="84" value="" style="edgeStyle=orthogonalEdgeStyle;curved=1;html=1;entryX=0.5;entryY=0;entryDx=0;entryDy=0;endArrow=none;" parent="42" source="66" target="83" edge="1">
          <mxGeometry relative="1" as="geometry">
            <mxPoint x="1805" y="-535" as="sourcePoint" />
            <mxPoint x="1842.5" y="-455" as="targetPoint" />
          </mxGeometry>
        </mxCell>
        <mxCell id="83" value="EJS" style="text;html=1;align=center;verticalAlign=middle;resizable=0;points=[];autosize=1;strokeColor=none;fillColor=none;" parent="42" vertex="1">
          <mxGeometry x="960" y="275" width="50" height="30" as="geometry" />
        </mxCell>
        <mxCell id="91" style="edgeStyle=orthogonalEdgeStyle;curved=1;html=1;entryX=0.083;entryY=0.364;entryDx=0;entryDy=0;entryPerimeter=0;fillColor=#fff2cc;strokeColor=#d6b656;" parent="42" source="87" target="69" edge="1">
          <mxGeometry relative="1" as="geometry" />
        </mxCell>
        <mxCell id="87" value="shared/partials/header" style="swimlane;whiteSpace=wrap;html=1;fillColor=#ffe6cc;strokeColor=#d79b00;" parent="42" vertex="1">
          <mxGeometry x="415" y="325" width="250" height="70" as="geometry" />
        </mxCell>
        <mxCell id="88" value="Header part" style="text;html=1;align=center;verticalAlign=middle;resizable=0;points=[];autosize=1;strokeColor=none;fillColor=none;" parent="87" vertex="1">
          <mxGeometry x="80" y="30" width="90" height="30" as="geometry" />
        </mxCell>
        <mxCell id="92" style="edgeStyle=orthogonalEdgeStyle;curved=1;html=1;entryX=0.125;entryY=0.795;entryDx=0;entryDy=0;entryPerimeter=0;fillColor=#dae8fc;strokeColor=#6c8ebf;" parent="42" source="89" target="69" edge="1">
          <mxGeometry relative="1" as="geometry" />
        </mxCell>
        <mxCell id="89" value="shared/partials/footer" style="swimlane;whiteSpace=wrap;html=1;fillColor=#dae8fc;strokeColor=#6c8ebf;" parent="42" vertex="1">
          <mxGeometry x="415" y="490" width="250" height="70" as="geometry" />
        </mxCell>
        <mxCell id="90" value="Footer" style="text;html=1;align=center;verticalAlign=middle;resizable=0;points=[];autosize=1;strokeColor=none;fillColor=none;" parent="89" vertex="1">
          <mxGeometry x="95" y="30" width="60" height="30" as="geometry" />
        </mxCell>
        <mxCell id="94" value="locals" style="swimlane;whiteSpace=wrap;html=1;fillColor=#d5e8d4;strokeColor=#82b366;" parent="1" vertex="1">
          <mxGeometry x="425" y="-60" width="340" height="310" as="geometry" />
        </mxCell>
        <mxCell id="95" value="&lt;h1&gt;Functions for frontend&lt;/h1&gt;&lt;div&gt;HEre you can extends your frontend code with functions.&lt;/div&gt;&lt;div&gt;Just add afile and name it. Then export functions/variables that you will get access to from your frontend code.&lt;/div&gt;&lt;div&gt;Every file will be used as an object. So to get access to: locals/myfunctions.js you should use the following syntax&amp;nbsp;&lt;/div&gt;&lt;div&gt;&lt;span style=&quot;white-space: pre;&quot;&gt;&#x9;&lt;/span&gt;&amp;lt;-% myfunctions.TheFunction()&amp;nbsp; %&amp;gt;&lt;/div&gt;&lt;div&gt;or&lt;/div&gt;&lt;div&gt;&lt;span style=&quot;white-space: pre;&quot;&gt;&#x9;&lt;/span&gt;&amp;lt;%= myfunctions.TheVariable&amp;nbsp; %&amp;gt;&lt;/div&gt;" style="text;html=1;strokeColor=none;fillColor=none;spacing=5;spacingTop=-20;whiteSpace=wrap;overflow=hidden;rounded=0;" parent="94" vertex="1">
          <mxGeometry x="5" y="40" width="305" height="240" as="geometry" />
        </mxCell>
        <mxCell id="4XU-YK2BNLV_SlYp-IQn-96" value="&lt;h1&gt;Middlewares&lt;/h1&gt;&lt;div&gt;Every request comming from frontend to backecnd, and every response sendt from backend to frontend can be intercepted by using Middlwares.&lt;/div&gt;&lt;div&gt;You can create as many JS files as you want, or you can jus put your all Middelwares in just one files.&lt;/div&gt;" style="text;html=1;strokeColor=#b85450;fillColor=#f8cecc;spacing=5;spacingTop=-20;whiteSpace=wrap;overflow=hidden;rounded=0;" parent="1" vertex="1">
          <mxGeometry x="-330" y="90" width="280" height="160" as="geometry" />
        </mxCell>
        <mxCell id="4XU-YK2BNLV_SlYp-IQn-99" value="&lt;h1&gt;Routes&lt;/h1&gt;&lt;div&gt;Routes ar the endpoints that the server will respond on. We use the Route function provided by Expressjs to create routes. Every group of routes can be grouped in one file. This is for to keep it organised.&lt;/div&gt;" style="text;html=1;strokeColor=#6c8ebf;fillColor=#dae8fc;spacing=5;spacingTop=-20;whiteSpace=wrap;overflow=hidden;rounded=0;" parent="1" vertex="1">
          <mxGeometry x="425" y="310" width="280" height="180" as="geometry" />
        </mxCell>
        <mxCell id="4XU-YK2BNLV_SlYp-IQn-111" style="edgeStyle=orthogonalEdgeStyle;curved=1;html=1;entryX=0;entryY=0.5;entryDx=0;entryDy=0;fontSize=16;exitX=0.53;exitY=0.001;exitDx=0;exitDy=0;exitPerimeter=0;" parent="1" source="4XU-YK2BNLV_SlYp-IQn-102" target="4XU-YK2BNLV_SlYp-IQn-105" edge="1">
          <mxGeometry relative="1" as="geometry" />
        </mxCell>
        <mxCell id="4XU-YK2BNLV_SlYp-IQn-102" value="" style="strokeWidth=1;shadow=0;dashed=0;align=center;html=1;shape=mxgraph.mockup.containers.browserWindow;rSize=0;strokeColor=#666666;strokeColor2=#008cff;strokeColor3=#c4c4c4;mainText=,;recursiveResize=0;" parent="1" vertex="1">
          <mxGeometry x="-1460" y="725" width="400" height="380" as="geometry" />
        </mxCell>
        <mxCell id="4XU-YK2BNLV_SlYp-IQn-103" value="Page 1" style="strokeWidth=1;shadow=0;dashed=0;align=center;html=1;shape=mxgraph.mockup.containers.anchor;fontSize=17;fontColor=#666666;align=left;" parent="4XU-YK2BNLV_SlYp-IQn-102" vertex="1">
          <mxGeometry x="60" y="12" width="110" height="26" as="geometry" />
        </mxCell>
        <mxCell id="4XU-YK2BNLV_SlYp-IQn-104" value="http://localhost:3000" style="strokeWidth=1;shadow=0;dashed=0;align=center;html=1;shape=mxgraph.mockup.containers.anchor;rSize=0;fontSize=17;fontColor=#666666;align=left;" parent="4XU-YK2BNLV_SlYp-IQn-102" vertex="1">
          <mxGeometry x="130" y="60" width="270" height="26" as="geometry" />
        </mxCell>
        <mxCell id="4XU-YK2BNLV_SlYp-IQn-109" style="edgeStyle=orthogonalEdgeStyle;curved=1;html=1;entryX=0;entryY=0.5;entryDx=0;entryDy=0;fontSize=16;" parent="1" source="4XU-YK2BNLV_SlYp-IQn-105" target="4XU-YK2BNLV_SlYp-IQn-108" edge="1">
          <mxGeometry relative="1" as="geometry" />
        </mxCell>
        <mxCell id="4XU-YK2BNLV_SlYp-IQn-110" style="edgeStyle=orthogonalEdgeStyle;curved=1;html=1;entryX=1;entryY=0.25;entryDx=0;entryDy=0;fontSize=16;" parent="1" source="4XU-YK2BNLV_SlYp-IQn-105" target="4XU-YK2BNLV_SlYp-IQn-107" edge="1">
          <mxGeometry relative="1" as="geometry" />
        </mxCell>
        <mxCell id="4XU-YK2BNLV_SlYp-IQn-115" value="" style="edgeStyle=orthogonalEdgeStyle;curved=1;html=1;fontSize=16;" parent="1" source="4XU-YK2BNLV_SlYp-IQn-105" target="4XU-YK2BNLV_SlYp-IQn-113" edge="1">
          <mxGeometry relative="1" as="geometry" />
        </mxCell>
        <mxCell id="4XU-YK2BNLV_SlYp-IQn-105" value="&lt;font style=&quot;font-size: 16px;&quot;&gt;&lt;b&gt;Request&lt;/b&gt;&lt;/font&gt;" style="text;html=1;strokeColor=#d6b656;fillColor=#fff2cc;align=center;verticalAlign=middle;whiteSpace=wrap;rounded=0;dashed=1;" parent="1" vertex="1">
          <mxGeometry x="-580" y="420" width="60" height="30" as="geometry" />
        </mxCell>
        <mxCell id="4XU-YK2BNLV_SlYp-IQn-181" style="edgeStyle=orthogonalEdgeStyle;curved=1;html=1;entryX=0.5;entryY=1;entryDx=0;entryDy=0;fontSize=16;" parent="1" source="4XU-YK2BNLV_SlYp-IQn-106" target="4XU-YK2BNLV_SlYp-IQn-180" edge="1">
          <mxGeometry relative="1" as="geometry" />
        </mxCell>
        <mxCell id="4XU-YK2BNLV_SlYp-IQn-183" style="edgeStyle=orthogonalEdgeStyle;curved=1;html=1;fontSize=16;" parent="1" source="4XU-YK2BNLV_SlYp-IQn-106" target="4XU-YK2BNLV_SlYp-IQn-102" edge="1">
          <mxGeometry relative="1" as="geometry" />
        </mxCell>
        <mxCell id="4XU-YK2BNLV_SlYp-IQn-106" value="&lt;font style=&quot;font-size: 16px;&quot;&gt;&lt;b&gt;Response&lt;/b&gt;&lt;/font&gt;" style="text;html=1;strokeColor=#82b366;fillColor=#d5e8d4;align=center;verticalAlign=middle;whiteSpace=wrap;rounded=0;" parent="1" vertex="1">
          <mxGeometry x="-650" y="1330" width="90" height="30" as="geometry" />
        </mxCell>
        <mxCell id="4XU-YK2BNLV_SlYp-IQn-107" value="Headers" style="rounded=1;whiteSpace=wrap;html=1;fontSize=16;" parent="1" vertex="1">
          <mxGeometry x="-660" y="480" width="90" height="30" as="geometry" />
        </mxCell>
        <mxCell id="4XU-YK2BNLV_SlYp-IQn-108" value="Data ?" style="shape=hexagon;perimeter=hexagonPerimeter2;whiteSpace=wrap;html=1;fixedSize=1;fontSize=16;" parent="1" vertex="1">
          <mxGeometry x="-540" y="470" width="90" height="40" as="geometry" />
        </mxCell>
        <mxCell id="4XU-YK2BNLV_SlYp-IQn-113" value="post OR get" style="text;html=1;align=center;verticalAlign=middle;resizable=0;points=[];autosize=1;strokeColor=#82b366;fillColor=#d5e8d4;fontSize=16;" parent="1" vertex="1">
          <mxGeometry x="-600" y="340" width="110" height="30" as="geometry" />
        </mxCell>
        <mxCell id="4XU-YK2BNLV_SlYp-IQn-114" value="Method" style="text;html=1;align=center;verticalAlign=middle;resizable=0;points=[];autosize=1;strokeColor=none;fillColor=none;fontSize=16;" parent="1" vertex="1">
          <mxGeometry x="-670" y="340" width="80" height="30" as="geometry" />
        </mxCell>
        <mxCell id="4XU-YK2BNLV_SlYp-IQn-175" value="The response" style="text;html=1;align=center;verticalAlign=middle;resizable=0;points=[];autosize=1;strokeColor=#82b366;fillColor=#d5e8d4;fontSize=16;" parent="1" vertex="1">
          <mxGeometry x="-246" y="695" width="120" height="30" as="geometry" />
        </mxCell>
        <mxCell id="4XU-YK2BNLV_SlYp-IQn-180" value="Data ?" style="shape=hexagon;perimeter=hexagonPerimeter2;whiteSpace=wrap;html=1;fixedSize=1;fontSize=16;" parent="1" vertex="1">
          <mxGeometry x="-580" y="1230" width="90" height="40" as="geometry" />
        </mxCell>
        <mxCell id="w89r1HB5D8UvUh826K27-96" value="users/add" style="text;html=1;align=center;verticalAlign=middle;resizable=0;points=[];autosize=1;strokeColor=none;fillColor=none;" parent="1" vertex="1">
          <mxGeometry x="450" y="558" width="80" height="30" as="geometry" />
        </mxCell>
        <mxCell id="w89r1HB5D8UvUh826K27-97" value="users/get" style="text;html=1;align=center;verticalAlign=middle;resizable=0;points=[];autosize=1;strokeColor=none;fillColor=none;" parent="1" vertex="1">
          <mxGeometry x="455" y="580" width="70" height="30" as="geometry" />
        </mxCell>
        <mxCell id="w89r1HB5D8UvUh826K27-98" value="users/delete" style="text;html=1;align=center;verticalAlign=middle;resizable=0;points=[];autosize=1;strokeColor=none;fillColor=none;" parent="1" vertex="1">
          <mxGeometry x="445" y="600" width="90" height="30" as="geometry" />
        </mxCell>
        <mxCell id="w89r1HB5D8UvUh826K27-99" value="products/all" style="text;html=1;align=center;verticalAlign=middle;resizable=0;points=[];autosize=1;strokeColor=none;fillColor=none;" parent="1" vertex="1">
          <mxGeometry x="600" y="558" width="80" height="30" as="geometry" />
        </mxCell>
        <mxCell id="w89r1HB5D8UvUh826K27-100" value="products/byid" style="text;html=1;align=center;verticalAlign=middle;resizable=0;points=[];autosize=1;strokeColor=none;fillColor=none;" parent="1" vertex="1">
          <mxGeometry x="600" y="580" width="90" height="30" as="geometry" />
        </mxCell>
        <mxCell id="ig90ET8cyCh0Ia1D7blF-96" value="APico server : 3000" style="swimlane;whiteSpace=wrap;html=1;" parent="1" vertex="1">
          <mxGeometry x="-300" y="580" width="680" height="840" as="geometry" />
        </mxCell>
        <mxCell id="ig90ET8cyCh0Ia1D7blF-97" value="Create to objects" style="text;html=1;align=center;verticalAlign=middle;resizable=0;points=[];autosize=1;strokeColor=none;fillColor=none;fontSize=16;" parent="ig90ET8cyCh0Ia1D7blF-96" vertex="1">
          <mxGeometry x="20" y="45" width="140" height="30" as="geometry" />
        </mxCell>
        <mxCell id="ig90ET8cyCh0Ia1D7blF-98" value="Response" style="text;html=1;align=center;verticalAlign=middle;resizable=0;points=[];autosize=1;strokeColor=#82b366;fillColor=#d5e8d4;fontSize=16;" parent="ig90ET8cyCh0Ia1D7blF-96" vertex="1">
          <mxGeometry x="219" y="75" width="100" height="30" as="geometry" />
        </mxCell>
        <mxCell id="ig90ET8cyCh0Ia1D7blF-99" value="" style="edgeStyle=orthogonalEdgeStyle;curved=1;html=1;fontSize=16;" parent="ig90ET8cyCh0Ia1D7blF-96" source="ig90ET8cyCh0Ia1D7blF-100" target="ig90ET8cyCh0Ia1D7blF-122" edge="1">
          <mxGeometry relative="1" as="geometry" />
        </mxCell>
        <mxCell id="ig90ET8cyCh0Ia1D7blF-100" value="Request" style="text;html=1;align=center;verticalAlign=middle;resizable=0;points=[];autosize=1;strokeColor=#d6b656;fillColor=#fff2cc;fontSize=16;" parent="ig90ET8cyCh0Ia1D7blF-96" vertex="1">
          <mxGeometry x="229" y="45" width="80" height="30" as="geometry" />
        </mxCell>
        <mxCell id="ig90ET8cyCh0Ia1D7blF-101" value="" style="shape=cylinder3;whiteSpace=wrap;html=1;boundedLbl=1;backgroundOutline=1;size=15;dashed=1;fontSize=16;" parent="ig90ET8cyCh0Ia1D7blF-96" vertex="1">
          <mxGeometry x="219" y="120" width="99" height="550" as="geometry" />
        </mxCell>
        <mxCell id="ig90ET8cyCh0Ia1D7blF-102" value="Middelwares" style="text;html=1;align=center;verticalAlign=middle;resizable=0;points=[];autosize=1;strokeColor=#6c8ebf;fillColor=#dae8fc;fontSize=16;" parent="ig90ET8cyCh0Ia1D7blF-96" vertex="1">
          <mxGeometry x="80" y="140" width="110" height="30" as="geometry" />
        </mxCell>
        <mxCell id="ig90ET8cyCh0Ia1D7blF-103" value="" style="shape=or;whiteSpace=wrap;html=1;dashed=1;fontSize=16;" parent="ig90ET8cyCh0Ia1D7blF-96" vertex="1">
          <mxGeometry x="90" y="180" width="20" height="30" as="geometry" />
        </mxCell>
        <mxCell id="ig90ET8cyCh0Ia1D7blF-104" value="" style="shape=or;whiteSpace=wrap;html=1;dashed=1;fontSize=16;" parent="ig90ET8cyCh0Ia1D7blF-96" vertex="1">
          <mxGeometry x="100" y="190" width="20" height="30" as="geometry" />
        </mxCell>
        <mxCell id="ig90ET8cyCh0Ia1D7blF-105" value="" style="shape=or;whiteSpace=wrap;html=1;dashed=1;fontSize=16;" parent="ig90ET8cyCh0Ia1D7blF-96" vertex="1">
          <mxGeometry x="110" y="200" width="20" height="30" as="geometry" />
        </mxCell>
        <mxCell id="ig90ET8cyCh0Ia1D7blF-106" value="" style="shape=or;whiteSpace=wrap;html=1;dashed=1;fontSize=16;" parent="ig90ET8cyCh0Ia1D7blF-96" vertex="1">
          <mxGeometry x="120" y="210" width="20" height="30" as="geometry" />
        </mxCell>
        <mxCell id="ig90ET8cyCh0Ia1D7blF-107" value="" style="shape=or;whiteSpace=wrap;html=1;dashed=1;fontSize=16;" parent="ig90ET8cyCh0Ia1D7blF-96" vertex="1">
          <mxGeometry x="130" y="220" width="20" height="30" as="geometry" />
        </mxCell>
        <mxCell id="ig90ET8cyCh0Ia1D7blF-108" value="" style="shape=or;whiteSpace=wrap;html=1;dashed=1;fontSize=16;" parent="ig90ET8cyCh0Ia1D7blF-96" vertex="1">
          <mxGeometry x="140" y="230" width="20" height="30" as="geometry" />
        </mxCell>
        <mxCell id="ig90ET8cyCh0Ia1D7blF-109" style="edgeStyle=orthogonalEdgeStyle;curved=1;html=1;entryX=0;entryY=0;entryDx=0;entryDy=92.5;entryPerimeter=0;fontSize=16;" parent="ig90ET8cyCh0Ia1D7blF-96" source="ig90ET8cyCh0Ia1D7blF-110" target="ig90ET8cyCh0Ia1D7blF-101" edge="1">
          <mxGeometry relative="1" as="geometry" />
        </mxCell>
        <mxCell id="ig90ET8cyCh0Ia1D7blF-110" value="" style="shape=or;whiteSpace=wrap;html=1;dashed=1;fontSize=16;" parent="ig90ET8cyCh0Ia1D7blF-96" vertex="1">
          <mxGeometry x="150" y="240" width="20" height="30" as="geometry" />
        </mxCell>
        <mxCell id="ig90ET8cyCh0Ia1D7blF-111" value="Routes" style="text;html=1;align=center;verticalAlign=middle;resizable=0;points=[];autosize=1;strokeColor=#666666;fillColor=#f5f5f5;fontSize=16;fontColor=#333333;" parent="ig90ET8cyCh0Ia1D7blF-96" vertex="1">
          <mxGeometry x="425" y="320" width="70" height="30" as="geometry" />
        </mxCell>
        <mxCell id="ig90ET8cyCh0Ia1D7blF-112" value="/api/test" style="text;html=1;align=center;verticalAlign=middle;resizable=0;points=[];autosize=1;strokeColor=#9673a6;fillColor=#e1d5e7;fontSize=16;" parent="ig90ET8cyCh0Ia1D7blF-96" vertex="1">
          <mxGeometry x="420" y="350" width="80" height="30" as="geometry" />
        </mxCell>
        <mxCell id="ig90ET8cyCh0Ia1D7blF-113" value="" style="edgeStyle=orthogonalEdgeStyle;curved=1;html=1;fontSize=16;" parent="ig90ET8cyCh0Ia1D7blF-96" source="ig90ET8cyCh0Ia1D7blF-114" target="ig90ET8cyCh0Ia1D7blF-101" edge="1">
          <mxGeometry relative="1" as="geometry" />
        </mxCell>
        <mxCell id="ig90ET8cyCh0Ia1D7blF-114" value="/auth/login" style="text;html=1;align=center;verticalAlign=middle;resizable=0;points=[];autosize=1;strokeColor=#9673a6;fillColor=#e1d5e7;fontSize=16;" parent="ig90ET8cyCh0Ia1D7blF-96" vertex="1">
          <mxGeometry x="410" y="380" width="100" height="30" as="geometry" />
        </mxCell>
        <mxCell id="ig90ET8cyCh0Ia1D7blF-115" value="/users/all" style="text;html=1;align=center;verticalAlign=middle;resizable=0;points=[];autosize=1;strokeColor=#9673a6;fillColor=#e1d5e7;fontSize=16;" parent="ig90ET8cyCh0Ia1D7blF-96" vertex="1">
          <mxGeometry x="415" y="410" width="90" height="30" as="geometry" />
        </mxCell>
        <mxCell id="ig90ET8cyCh0Ia1D7blF-116" value="/users/add" style="text;html=1;align=center;verticalAlign=middle;resizable=0;points=[];autosize=1;strokeColor=#9673a6;fillColor=#e1d5e7;fontSize=16;" parent="ig90ET8cyCh0Ia1D7blF-96" vertex="1">
          <mxGeometry x="410" y="440" width="100" height="30" as="geometry" />
        </mxCell>
        <mxCell id="ig90ET8cyCh0Ia1D7blF-117" value="post" style="text;html=1;align=center;verticalAlign=middle;resizable=0;points=[];autosize=1;strokeColor=none;fillColor=none;fontSize=16;" parent="ig90ET8cyCh0Ia1D7blF-96" vertex="1">
          <mxGeometry x="500" y="350" width="50" height="30" as="geometry" />
        </mxCell>
        <mxCell id="ig90ET8cyCh0Ia1D7blF-118" value="post" style="text;html=1;align=center;verticalAlign=middle;resizable=0;points=[];autosize=1;strokeColor=none;fillColor=none;fontSize=16;" parent="ig90ET8cyCh0Ia1D7blF-96" vertex="1">
          <mxGeometry x="510" y="380" width="50" height="30" as="geometry" />
        </mxCell>
        <mxCell id="ig90ET8cyCh0Ia1D7blF-119" value="get" style="text;html=1;align=center;verticalAlign=middle;resizable=0;points=[];autosize=1;strokeColor=none;fillColor=none;fontSize=16;" parent="ig90ET8cyCh0Ia1D7blF-96" vertex="1">
          <mxGeometry x="510" y="410" width="50" height="30" as="geometry" />
        </mxCell>
        <mxCell id="ig90ET8cyCh0Ia1D7blF-120" value="post" style="text;html=1;align=center;verticalAlign=middle;resizable=0;points=[];autosize=1;strokeColor=none;fillColor=none;fontSize=16;" parent="ig90ET8cyCh0Ia1D7blF-96" vertex="1">
          <mxGeometry x="510" y="440" width="50" height="30" as="geometry" />
        </mxCell>
        <mxCell id="ig90ET8cyCh0Ia1D7blF-121" style="edgeStyle=orthogonalEdgeStyle;curved=1;html=1;fontSize=16;" parent="ig90ET8cyCh0Ia1D7blF-96" source="ig90ET8cyCh0Ia1D7blF-122" target="ig90ET8cyCh0Ia1D7blF-111" edge="1">
          <mxGeometry relative="1" as="geometry" />
        </mxCell>
        <mxCell id="ig90ET8cyCh0Ia1D7blF-122" value="url" style="text;html=1;align=center;verticalAlign=middle;resizable=0;points=[];autosize=1;strokeColor=#d6b656;fillColor=#fff2cc;fontSize=16;" parent="ig90ET8cyCh0Ia1D7blF-96" vertex="1">
          <mxGeometry x="360" y="140" width="40" height="30" as="geometry" />
        </mxCell>
        <mxCell id="ig90ET8cyCh0Ia1D7blF-123" value="method" style="text;html=1;align=center;verticalAlign=middle;resizable=0;points=[];autosize=1;strokeColor=#d6b656;fillColor=#fff2cc;fontSize=16;" parent="ig90ET8cyCh0Ia1D7blF-96" vertex="1">
          <mxGeometry x="430" y="45" width="80" height="30" as="geometry" />
        </mxCell>
        <mxCell id="ig90ET8cyCh0Ia1D7blF-124" style="edgeStyle=orthogonalEdgeStyle;curved=1;html=1;entryX=-0.014;entryY=0.285;entryDx=0;entryDy=0;entryPerimeter=0;fontSize=16;" parent="ig90ET8cyCh0Ia1D7blF-96" source="ig90ET8cyCh0Ia1D7blF-100" target="ig90ET8cyCh0Ia1D7blF-123" edge="1">
          <mxGeometry relative="1" as="geometry" />
        </mxCell>
        <mxCell id="ig90ET8cyCh0Ia1D7blF-125" value="Response" style="text;html=1;align=center;verticalAlign=middle;resizable=0;points=[];autosize=1;strokeColor=#82b366;fillColor=#d5e8d4;fontSize=16;" parent="ig90ET8cyCh0Ia1D7blF-96" vertex="1">
          <mxGeometry x="218" y="730" width="100" height="30" as="geometry" />
        </mxCell>
        <mxCell id="ig90ET8cyCh0Ia1D7blF-144" style="edgeStyle=none;html=1;" parent="ig90ET8cyCh0Ia1D7blF-96" source="ig90ET8cyCh0Ia1D7blF-98" target="ig90ET8cyCh0Ia1D7blF-125" edge="1">
          <mxGeometry relative="1" as="geometry" />
        </mxCell>
        <mxCell id="ig90ET8cyCh0Ia1D7blF-128" style="edgeStyle=orthogonalEdgeStyle;curved=1;html=1;entryX=0.5;entryY=1;entryDx=0;entryDy=0;fontSize=16;" parent="1" source="ig90ET8cyCh0Ia1D7blF-130" target="ig90ET8cyCh0Ia1D7blF-136" edge="1">
          <mxGeometry relative="1" as="geometry" />
        </mxCell>
        <mxCell id="ig90ET8cyCh0Ia1D7blF-130" value="&lt;font style=&quot;font-size: 16px;&quot;&gt;&lt;b&gt;Response&lt;/b&gt;&lt;/font&gt;" style="text;html=1;strokeColor=#82b366;fillColor=#d5e8d4;align=center;verticalAlign=middle;whiteSpace=wrap;rounded=0;" parent="1" vertex="1">
          <mxGeometry x="-650" y="1330" width="90" height="30" as="geometry" />
        </mxCell>
        <mxCell id="ig90ET8cyCh0Ia1D7blF-133" value="" style="edgeStyle=orthogonalEdgeStyle;curved=1;html=1;fontSize=16;endArrow=none;" parent="1" source="ig90ET8cyCh0Ia1D7blF-98" target="ig90ET8cyCh0Ia1D7blF-134" edge="1">
          <mxGeometry relative="1" as="geometry">
            <mxPoint x="-180" y="870" as="targetPoint" />
            <mxPoint x="-181" y="485" as="sourcePoint" />
          </mxGeometry>
        </mxCell>
        <mxCell id="ig90ET8cyCh0Ia1D7blF-134" value="The response" style="text;html=1;align=center;verticalAlign=middle;resizable=0;points=[];autosize=1;strokeColor=#82b366;fillColor=#d5e8d4;fontSize=16;" parent="1" vertex="1">
          <mxGeometry x="-246" y="695" width="120" height="30" as="geometry" />
        </mxCell>
        <mxCell id="ig90ET8cyCh0Ia1D7blF-135" style="edgeStyle=orthogonalEdgeStyle;curved=1;html=1;entryX=1;entryY=0.5;entryDx=0;entryDy=0;fontSize=16;" parent="1" source="ig90ET8cyCh0Ia1D7blF-125" target="ig90ET8cyCh0Ia1D7blF-130" edge="1">
          <mxGeometry relative="1" as="geometry" />
        </mxCell>
        <mxCell id="ig90ET8cyCh0Ia1D7blF-136" value="Headers" style="rounded=1;whiteSpace=wrap;html=1;fontSize=16;arcSize=50;" parent="1" vertex="1">
          <mxGeometry x="-720" y="1235" width="90" height="30" as="geometry" />
        </mxCell>
      </root>
    </mxGraphModel>
  </diagram>
  <diagram id="QBiXmgCwCycfH5SDxWuZ" name="layout">
    <mxGraphModel dx="1674" dy="836" grid="1" gridSize="10" guides="1" tooltips="1" connect="1" arrows="1" fold="1" page="1" pageScale="1" pageWidth="850" pageHeight="1100" math="0" shadow="0">
      <root>
        <mxCell id="0" />
        <mxCell id="1" parent="0" />
        <mxCell id="Izo-E1cRAQ_wyaN01EDJ-1" value="" style="rounded=0;whiteSpace=wrap;html=1;" parent="1" vertex="1">
          <mxGeometry x="190" width="420" height="460" as="geometry" />
        </mxCell>
        <mxCell id="Izo-E1cRAQ_wyaN01EDJ-2" value="" style="rounded=0;whiteSpace=wrap;html=1;" parent="1" vertex="1">
          <mxGeometry x="210" y="10" width="380" height="60" as="geometry" />
        </mxCell>
        <mxCell id="Izo-E1cRAQ_wyaN01EDJ-3" value="" style="rounded=0;whiteSpace=wrap;html=1;" parent="1" vertex="1">
          <mxGeometry x="220" y="80" width="360" height="350" as="geometry" />
        </mxCell>
        <mxCell id="Izo-E1cRAQ_wyaN01EDJ-4" value="" style="rounded=0;whiteSpace=wrap;html=1;" parent="1" vertex="1">
          <mxGeometry x="240" y="90" width="130" height="320" as="geometry" />
        </mxCell>
        <mxCell id="Izo-E1cRAQ_wyaN01EDJ-5" value="" style="rounded=0;whiteSpace=wrap;html=1;" parent="1" vertex="1">
          <mxGeometry x="380" y="90" width="190" height="320" as="geometry" />
        </mxCell>
      </root>
    </mxGraphModel>
  </diagram>
  <diagram id="hnl8ZH0MW81i1IBHYlYm" name="breakpoints">
    <mxGraphModel dx="2524" dy="836" grid="1" gridSize="10" guides="1" tooltips="1" connect="1" arrows="1" fold="1" page="1" pageScale="1" pageWidth="850" pageHeight="1100" math="0" shadow="0">
      <root>
        <mxCell id="0" />
        <mxCell id="1" parent="0" />
        <mxCell id="SVdgGltisaMeItz3Us6K-1" value="" style="shape=link;html=1;rounded=0;" parent="1" edge="1">
          <mxGeometry width="100" relative="1" as="geometry">
            <mxPoint x="-600" y="120" as="sourcePoint" />
            <mxPoint x="800" y="120" as="targetPoint" />
          </mxGeometry>
        </mxCell>
        <mxCell id="SVdgGltisaMeItz3Us6K-2" value="max" style="text;html=1;align=center;verticalAlign=middle;resizable=0;points=[];autosize=1;strokeColor=none;fillColor=none;" parent="1" vertex="1">
          <mxGeometry x="770" y="68" width="50" height="30" as="geometry" />
        </mxCell>
        <mxCell id="SVdgGltisaMeItz3Us6K-3" value="576px" style="text;html=1;align=center;verticalAlign=middle;resizable=0;points=[];autosize=1;strokeColor=none;fillColor=none;" parent="1" vertex="1">
          <mxGeometry x="-431" y="68" width="60" height="30" as="geometry" />
        </mxCell>
        <mxCell id="SVdgGltisaMeItz3Us6K-4" value="0" style="text;html=1;align=center;verticalAlign=middle;resizable=0;points=[];autosize=1;strokeColor=none;fillColor=none;" parent="1" vertex="1">
          <mxGeometry x="-605" y="68" width="30" height="30" as="geometry" />
        </mxCell>
        <mxCell id="SVdgGltisaMeItz3Us6K-5" value="768px" style="text;html=1;align=center;verticalAlign=middle;resizable=0;points=[];autosize=1;strokeColor=none;fillColor=none;" parent="1" vertex="1">
          <mxGeometry x="-230" y="68" width="60" height="30" as="geometry" />
        </mxCell>
        <mxCell id="SVdgGltisaMeItz3Us6K-6" value="992px" style="text;html=1;align=center;verticalAlign=middle;resizable=0;points=[];autosize=1;strokeColor=none;fillColor=none;" parent="1" vertex="1">
          <mxGeometry x="-30" y="68" width="60" height="30" as="geometry" />
        </mxCell>
        <mxCell id="SVdgGltisaMeItz3Us6K-7" value="1200px" style="text;html=1;align=center;verticalAlign=middle;resizable=0;points=[];autosize=1;strokeColor=none;fillColor=none;" parent="1" vertex="1">
          <mxGeometry x="210" y="68" width="60" height="30" as="geometry" />
        </mxCell>
        <mxCell id="SVdgGltisaMeItz3Us6K-8" value="1400px" style="text;html=1;align=center;verticalAlign=middle;resizable=0;points=[];autosize=1;strokeColor=none;fillColor=none;" parent="1" vertex="1">
          <mxGeometry x="490" y="68" width="60" height="30" as="geometry" />
        </mxCell>
        <mxCell id="SVdgGltisaMeItz3Us6K-9" value="" style="endArrow=none;html=1;rounded=0;" parent="1" edge="1">
          <mxGeometry width="50" height="50" relative="1" as="geometry">
            <mxPoint x="-600" y="135" as="sourcePoint" />
            <mxPoint x="-600" y="105" as="targetPoint" />
          </mxGeometry>
        </mxCell>
        <mxCell id="SVdgGltisaMeItz3Us6K-10" value="" style="endArrow=none;html=1;rounded=0;" parent="1" edge="1">
          <mxGeometry width="50" height="50" relative="1" as="geometry">
            <mxPoint x="-400" y="135" as="sourcePoint" />
            <mxPoint x="-400" y="105" as="targetPoint" />
          </mxGeometry>
        </mxCell>
        <mxCell id="SVdgGltisaMeItz3Us6K-11" value="" style="endArrow=none;html=1;rounded=0;" parent="1" edge="1">
          <mxGeometry width="50" height="50" relative="1" as="geometry">
            <mxPoint x="-198" y="136" as="sourcePoint" />
            <mxPoint x="-198" y="106" as="targetPoint" />
          </mxGeometry>
        </mxCell>
        <mxCell id="SVdgGltisaMeItz3Us6K-12" value="" style="endArrow=none;html=1;rounded=0;" parent="1" edge="1">
          <mxGeometry width="50" height="50" relative="1" as="geometry">
            <mxPoint x="1" y="136" as="sourcePoint" />
            <mxPoint x="1" y="106" as="targetPoint" />
          </mxGeometry>
        </mxCell>
        <mxCell id="SVdgGltisaMeItz3Us6K-13" value="" style="endArrow=none;html=1;rounded=0;" parent="1" edge="1">
          <mxGeometry width="50" height="50" relative="1" as="geometry">
            <mxPoint x="241" y="136" as="sourcePoint" />
            <mxPoint x="241" y="106" as="targetPoint" />
          </mxGeometry>
        </mxCell>
        <mxCell id="SVdgGltisaMeItz3Us6K-14" value="" style="endArrow=none;html=1;rounded=0;" parent="1" edge="1">
          <mxGeometry width="50" height="50" relative="1" as="geometry">
            <mxPoint x="521" y="136" as="sourcePoint" />
            <mxPoint x="521" y="106" as="targetPoint" />
          </mxGeometry>
        </mxCell>
        <mxCell id="SVdgGltisaMeItz3Us6K-15" value="" style="endArrow=none;html=1;rounded=0;" parent="1" edge="1">
          <mxGeometry width="50" height="50" relative="1" as="geometry">
            <mxPoint x="801" y="136" as="sourcePoint" />
            <mxPoint x="801" y="106" as="targetPoint" />
          </mxGeometry>
        </mxCell>
        <mxCell id="SVdgGltisaMeItz3Us6K-16" value="&lt;font style=&quot;font-size: 23px;&quot;&gt;Containers&lt;/font&gt;" style="rounded=0;whiteSpace=wrap;html=1;rotation=-90;fillColor=#d5e8d4;strokeColor=#82b366;" parent="1" vertex="1">
          <mxGeometry x="-800" y="237" width="250" height="60" as="geometry" />
        </mxCell>
        <mxCell id="SVdgGltisaMeItz3Us6K-17" value="&lt;font style=&quot;font-size: 14px;&quot;&gt;-sm&lt;/font&gt;" style="text;html=1;align=center;verticalAlign=middle;resizable=0;points=[];autosize=1;strokeColor=none;fillColor=none;" parent="1" vertex="1">
          <mxGeometry x="-650" y="180" width="50" height="30" as="geometry" />
        </mxCell>
        <mxCell id="SVdgGltisaMeItz3Us6K-18" value="&lt;font style=&quot;font-size: 14px;&quot;&gt;-md&lt;/font&gt;" style="text;html=1;align=center;verticalAlign=middle;resizable=0;points=[];autosize=1;strokeColor=none;fillColor=none;" parent="1" vertex="1">
          <mxGeometry x="-650" y="222" width="50" height="30" as="geometry" />
        </mxCell>
        <mxCell id="SVdgGltisaMeItz3Us6K-19" value="&lt;font style=&quot;font-size: 14px;&quot;&gt;-lg&lt;/font&gt;" style="text;html=1;align=center;verticalAlign=middle;resizable=0;points=[];autosize=1;strokeColor=none;fillColor=none;" parent="1" vertex="1">
          <mxGeometry x="-645" y="261" width="40" height="30" as="geometry" />
        </mxCell>
        <mxCell id="SVdgGltisaMeItz3Us6K-20" value="&lt;font style=&quot;font-size: 14px;&quot;&gt;-xl&lt;/font&gt;" style="text;html=1;align=center;verticalAlign=middle;resizable=0;points=[];autosize=1;strokeColor=none;fillColor=none;" parent="1" vertex="1">
          <mxGeometry x="-645" y="297" width="40" height="30" as="geometry" />
        </mxCell>
        <mxCell id="SVdgGltisaMeItz3Us6K-21" value="&lt;font style=&quot;font-size: 14px;&quot;&gt;-xxl&lt;/font&gt;" style="text;html=1;align=center;verticalAlign=middle;resizable=0;points=[];autosize=1;strokeColor=none;fillColor=none;" parent="1" vertex="1">
          <mxGeometry x="-650" y="337" width="50" height="30" as="geometry" />
        </mxCell>
        <mxCell id="SVdgGltisaMeItz3Us6K-22" value="&lt;font style=&quot;font-size: 14px;&quot;&gt;-fluid&lt;/font&gt;" style="text;html=1;align=center;verticalAlign=middle;resizable=0;points=[];autosize=1;strokeColor=none;fillColor=none;" parent="1" vertex="1">
          <mxGeometry x="-650" y="377" width="50" height="30" as="geometry" />
        </mxCell>
        <mxCell id="SVdgGltisaMeItz3Us6K-23" value="100%" style="text;html=1;align=center;verticalAlign=middle;resizable=0;points=[];autosize=1;strokeColor=none;fillColor=none;strokeWidth=1;" parent="1" vertex="1">
          <mxGeometry x="-520" y="140" width="50" height="30" as="geometry" />
        </mxCell>
        <mxCell id="SVdgGltisaMeItz3Us6K-24" value="540px" style="text;html=1;align=center;verticalAlign=middle;resizable=0;points=[];autosize=1;strokeColor=#666666;fillColor=#f5f5f5;strokeWidth=1;fontColor=#333333;" parent="1" vertex="1">
          <mxGeometry x="-315" y="140" width="60" height="30" as="geometry" />
        </mxCell>
        <mxCell id="SVdgGltisaMeItz3Us6K-25" value="720px" style="text;html=1;align=center;verticalAlign=middle;resizable=0;points=[];autosize=1;strokeColor=#6c8ebf;fillColor=#dae8fc;strokeWidth=1;" parent="1" vertex="1">
          <mxGeometry x="-115" y="140" width="60" height="30" as="geometry" />
        </mxCell>
        <mxCell id="SVdgGltisaMeItz3Us6K-26" value="960px" style="text;html=1;align=center;verticalAlign=middle;resizable=0;points=[];autosize=1;strokeColor=#82b366;fillColor=#d5e8d4;strokeWidth=1;" parent="1" vertex="1">
          <mxGeometry x="85" y="140" width="60" height="30" as="geometry" />
        </mxCell>
        <mxCell id="SVdgGltisaMeItz3Us6K-27" value="1140px" style="text;html=1;align=center;verticalAlign=middle;resizable=0;points=[];autosize=1;strokeColor=#d79b00;fillColor=#ffe6cc;strokeWidth=1;" parent="1" vertex="1">
          <mxGeometry x="360" y="142" width="60" height="30" as="geometry" />
        </mxCell>
        <mxCell id="SVdgGltisaMeItz3Us6K-28" value="1320px" style="text;html=1;align=center;verticalAlign=middle;resizable=0;points=[];autosize=1;strokeColor=#9673a6;fillColor=#e1d5e7;strokeWidth=1;" parent="1" vertex="1">
          <mxGeometry x="636" y="137" width="60" height="30" as="geometry" />
        </mxCell>
        <mxCell id="SVdgGltisaMeItz3Us6K-29" value="1140px" style="text;html=1;align=center;verticalAlign=middle;resizable=0;points=[];autosize=1;strokeColor=#d79b00;fillColor=#ffe6cc;strokeWidth=1;" parent="1" vertex="1">
          <mxGeometry x="360" y="179" width="60" height="30" as="geometry" />
        </mxCell>
        <mxCell id="SVdgGltisaMeItz3Us6K-30" value="1140px" style="text;html=1;align=center;verticalAlign=middle;resizable=0;points=[];autosize=1;strokeColor=#d79b00;fillColor=#ffe6cc;strokeWidth=1;" parent="1" vertex="1">
          <mxGeometry x="360" y="222" width="60" height="30" as="geometry" />
        </mxCell>
        <mxCell id="SVdgGltisaMeItz3Us6K-31" value="1140px" style="text;html=1;align=center;verticalAlign=middle;resizable=0;points=[];autosize=1;strokeColor=#d79b00;fillColor=#ffe6cc;strokeWidth=1;" parent="1" vertex="1">
          <mxGeometry x="360" y="260" width="60" height="30" as="geometry" />
        </mxCell>
        <mxCell id="SVdgGltisaMeItz3Us6K-32" value="1320px" style="text;html=1;align=center;verticalAlign=middle;resizable=0;points=[];autosize=1;strokeColor=#9673a6;fillColor=#e1d5e7;strokeWidth=1;" parent="1" vertex="1">
          <mxGeometry x="636" y="177" width="60" height="30" as="geometry" />
        </mxCell>
        <mxCell id="SVdgGltisaMeItz3Us6K-33" value="1320px" style="text;html=1;align=center;verticalAlign=middle;resizable=0;points=[];autosize=1;strokeColor=#9673a6;fillColor=#e1d5e7;strokeWidth=1;" parent="1" vertex="1">
          <mxGeometry x="636" y="217" width="60" height="30" as="geometry" />
        </mxCell>
        <mxCell id="SVdgGltisaMeItz3Us6K-34" value="1320px" style="text;html=1;align=center;verticalAlign=middle;resizable=0;points=[];autosize=1;strokeColor=#9673a6;fillColor=#e1d5e7;strokeWidth=1;" parent="1" vertex="1">
          <mxGeometry x="636" y="257" width="60" height="30" as="geometry" />
        </mxCell>
        <mxCell id="SVdgGltisaMeItz3Us6K-35" value="1320px" style="text;html=1;align=center;verticalAlign=middle;resizable=0;points=[];autosize=1;strokeColor=#9673a6;fillColor=#e1d5e7;strokeWidth=1;" parent="1" vertex="1">
          <mxGeometry x="636" y="297" width="60" height="30" as="geometry" />
        </mxCell>
        <mxCell id="SVdgGltisaMeItz3Us6K-36" value="100%" style="text;html=1;align=center;verticalAlign=middle;resizable=0;points=[];autosize=1;strokeColor=none;fillColor=none;strokeWidth=1;" parent="1" vertex="1">
          <mxGeometry x="-520" y="180" width="50" height="30" as="geometry" />
        </mxCell>
        <mxCell id="SVdgGltisaMeItz3Us6K-37" value="100%" style="text;html=1;align=center;verticalAlign=middle;resizable=0;points=[];autosize=1;strokeColor=none;fillColor=none;strokeWidth=1;" parent="1" vertex="1">
          <mxGeometry x="-520" y="220" width="50" height="30" as="geometry" />
        </mxCell>
        <mxCell id="SVdgGltisaMeItz3Us6K-38" value="100%" style="text;html=1;align=center;verticalAlign=middle;resizable=0;points=[];autosize=1;strokeColor=none;fillColor=none;strokeWidth=1;" parent="1" vertex="1">
          <mxGeometry x="-520" y="260" width="50" height="30" as="geometry" />
        </mxCell>
        <mxCell id="SVdgGltisaMeItz3Us6K-39" value="100%" style="text;html=1;align=center;verticalAlign=middle;resizable=0;points=[];autosize=1;strokeColor=none;fillColor=none;strokeWidth=1;" parent="1" vertex="1">
          <mxGeometry x="-520" y="300" width="50" height="30" as="geometry" />
        </mxCell>
        <mxCell id="SVdgGltisaMeItz3Us6K-40" value="100%" style="text;html=1;align=center;verticalAlign=middle;resizable=0;points=[];autosize=1;strokeColor=none;fillColor=none;strokeWidth=1;" parent="1" vertex="1">
          <mxGeometry x="-520" y="340" width="50" height="30" as="geometry" />
        </mxCell>
        <mxCell id="SVdgGltisaMeItz3Us6K-41" value="100%" style="text;html=1;align=center;verticalAlign=middle;resizable=0;points=[];autosize=1;strokeColor=none;fillColor=none;strokeWidth=1;" parent="1" vertex="1">
          <mxGeometry x="-520" y="380" width="50" height="30" as="geometry" />
        </mxCell>
        <mxCell id="SVdgGltisaMeItz3Us6K-42" value="100%" style="text;html=1;align=center;verticalAlign=middle;resizable=0;points=[];autosize=1;strokeColor=none;fillColor=none;strokeWidth=1;" parent="1" vertex="1">
          <mxGeometry x="-310" y="380" width="50" height="30" as="geometry" />
        </mxCell>
        <mxCell id="SVdgGltisaMeItz3Us6K-43" value="100%" style="text;html=1;align=center;verticalAlign=middle;resizable=0;points=[];autosize=1;strokeColor=none;fillColor=none;strokeWidth=1;" parent="1" vertex="1">
          <mxGeometry x="-110" y="380" width="50" height="30" as="geometry" />
        </mxCell>
        <mxCell id="SVdgGltisaMeItz3Us6K-44" value="100%" style="text;html=1;align=center;verticalAlign=middle;resizable=0;points=[];autosize=1;strokeColor=none;fillColor=none;strokeWidth=1;" parent="1" vertex="1">
          <mxGeometry x="90" y="380" width="50" height="30" as="geometry" />
        </mxCell>
        <mxCell id="SVdgGltisaMeItz3Us6K-45" value="100%" style="text;html=1;align=center;verticalAlign=middle;resizable=0;points=[];autosize=1;strokeColor=none;fillColor=none;strokeWidth=1;" parent="1" vertex="1">
          <mxGeometry x="365" y="377" width="50" height="30" as="geometry" />
        </mxCell>
        <mxCell id="SVdgGltisaMeItz3Us6K-46" value="100%" style="text;html=1;align=center;verticalAlign=middle;resizable=0;points=[];autosize=1;strokeColor=none;fillColor=none;strokeWidth=1;" parent="1" vertex="1">
          <mxGeometry x="640" y="380" width="50" height="30" as="geometry" />
        </mxCell>
        <mxCell id="SVdgGltisaMeItz3Us6K-47" value="1320px" style="text;html=1;align=center;verticalAlign=middle;resizable=0;points=[];autosize=1;strokeColor=#9673a6;fillColor=#e1d5e7;strokeWidth=1;" parent="1" vertex="1">
          <mxGeometry x="637" y="340" width="60" height="30" as="geometry" />
        </mxCell>
        <mxCell id="SVdgGltisaMeItz3Us6K-48" value="1140px" style="text;html=1;align=center;verticalAlign=middle;resizable=0;points=[];autosize=1;strokeColor=#d79b00;fillColor=#ffe6cc;strokeWidth=1;" parent="1" vertex="1">
          <mxGeometry x="360" y="300" width="60" height="30" as="geometry" />
        </mxCell>
        <mxCell id="SVdgGltisaMeItz3Us6K-49" value="100%" style="text;html=1;align=center;verticalAlign=middle;resizable=0;points=[];autosize=1;strokeColor=none;fillColor=none;strokeWidth=1;" parent="1" vertex="1">
          <mxGeometry x="365" y="340" width="50" height="30" as="geometry" />
        </mxCell>
        <mxCell id="SVdgGltisaMeItz3Us6K-50" value="100%" style="text;html=1;align=center;verticalAlign=middle;resizable=0;points=[];autosize=1;strokeColor=none;fillColor=none;strokeWidth=1;" parent="1" vertex="1">
          <mxGeometry x="90" y="340" width="50" height="30" as="geometry" />
        </mxCell>
        <mxCell id="SVdgGltisaMeItz3Us6K-51" value="100%" style="text;html=1;align=center;verticalAlign=middle;resizable=0;points=[];autosize=1;strokeColor=none;fillColor=none;strokeWidth=1;" parent="1" vertex="1">
          <mxGeometry x="90" y="300" width="50" height="30" as="geometry" />
        </mxCell>
        <mxCell id="SVdgGltisaMeItz3Us6K-52" value="960px" style="text;html=1;align=center;verticalAlign=middle;resizable=0;points=[];autosize=1;strokeColor=#82b366;fillColor=#d5e8d4;strokeWidth=1;" parent="1" vertex="1">
          <mxGeometry x="84" y="180" width="60" height="30" as="geometry" />
        </mxCell>
        <mxCell id="SVdgGltisaMeItz3Us6K-53" value="960px" style="text;html=1;align=center;verticalAlign=middle;resizable=0;points=[];autosize=1;strokeColor=#82b366;fillColor=#d5e8d4;strokeWidth=1;" parent="1" vertex="1">
          <mxGeometry x="84" y="220" width="60" height="30" as="geometry" />
        </mxCell>
        <mxCell id="SVdgGltisaMeItz3Us6K-54" value="960px" style="text;html=1;align=center;verticalAlign=middle;resizable=0;points=[];autosize=1;strokeColor=#82b366;fillColor=#d5e8d4;strokeWidth=1;" parent="1" vertex="1">
          <mxGeometry x="85" y="257" width="60" height="30" as="geometry" />
        </mxCell>
        <mxCell id="SVdgGltisaMeItz3Us6K-55" value="540px" style="text;html=1;align=center;verticalAlign=middle;resizable=0;points=[];autosize=1;strokeColor=#666666;fillColor=#f5f5f5;strokeWidth=1;fontColor=#333333;" parent="1" vertex="1">
          <mxGeometry x="-315" y="180" width="60" height="30" as="geometry" />
        </mxCell>
        <mxCell id="SVdgGltisaMeItz3Us6K-56" value="720px" style="text;html=1;align=center;verticalAlign=middle;resizable=0;points=[];autosize=1;strokeColor=#6c8ebf;fillColor=#dae8fc;strokeWidth=1;" parent="1" vertex="1">
          <mxGeometry x="-115" y="180" width="60" height="30" as="geometry" />
        </mxCell>
        <mxCell id="SVdgGltisaMeItz3Us6K-57" value="720px" style="text;html=1;align=center;verticalAlign=middle;resizable=0;points=[];autosize=1;strokeColor=#6c8ebf;fillColor=#dae8fc;strokeWidth=1;" parent="1" vertex="1">
          <mxGeometry x="-115" y="222" width="60" height="30" as="geometry" />
        </mxCell>
        <mxCell id="SVdgGltisaMeItz3Us6K-58" value="100%" style="text;html=1;align=center;verticalAlign=middle;resizable=0;points=[];autosize=1;strokeColor=none;fillColor=none;strokeWidth=1;" parent="1" vertex="1">
          <mxGeometry x="-310" y="222" width="50" height="30" as="geometry" />
        </mxCell>
        <mxCell id="SVdgGltisaMeItz3Us6K-59" value="100%" style="text;html=1;align=center;verticalAlign=middle;resizable=0;points=[];autosize=1;strokeColor=none;fillColor=none;strokeWidth=1;" parent="1" vertex="1">
          <mxGeometry x="-310" y="260" width="50" height="30" as="geometry" />
        </mxCell>
        <mxCell id="SVdgGltisaMeItz3Us6K-60" value="100%" style="text;html=1;align=center;verticalAlign=middle;resizable=0;points=[];autosize=1;strokeColor=none;fillColor=none;strokeWidth=1;" parent="1" vertex="1">
          <mxGeometry x="-310" y="300" width="50" height="30" as="geometry" />
        </mxCell>
        <mxCell id="SVdgGltisaMeItz3Us6K-61" value="100%" style="text;html=1;align=center;verticalAlign=middle;resizable=0;points=[];autosize=1;strokeColor=none;fillColor=none;strokeWidth=1;" parent="1" vertex="1">
          <mxGeometry x="-310" y="337" width="50" height="30" as="geometry" />
        </mxCell>
        <mxCell id="SVdgGltisaMeItz3Us6K-62" value="100%" style="text;html=1;align=center;verticalAlign=middle;resizable=0;points=[];autosize=1;strokeColor=none;fillColor=none;strokeWidth=1;" parent="1" vertex="1">
          <mxGeometry x="-110" y="261" width="50" height="30" as="geometry" />
        </mxCell>
        <mxCell id="SVdgGltisaMeItz3Us6K-63" value="100%" style="text;html=1;align=center;verticalAlign=middle;resizable=0;points=[];autosize=1;strokeColor=none;fillColor=none;strokeWidth=1;" parent="1" vertex="1">
          <mxGeometry x="-110" y="300" width="50" height="30" as="geometry" />
        </mxCell>
        <mxCell id="SVdgGltisaMeItz3Us6K-64" value="100%" style="text;html=1;align=center;verticalAlign=middle;resizable=0;points=[];autosize=1;strokeColor=none;fillColor=none;strokeWidth=1;" parent="1" vertex="1">
          <mxGeometry x="-110" y="337" width="50" height="30" as="geometry" />
        </mxCell>
        <mxCell id="SVdgGltisaMeItz3Us6K-65" value="&lt;font style=&quot;font-size: 14px;&quot;&gt;sm&lt;/font&gt;" style="text;html=1;align=center;verticalAlign=middle;resizable=0;points=[];autosize=1;strokeColor=none;fillColor=none;" parent="1" vertex="1">
          <mxGeometry x="-421" y="20" width="40" height="30" as="geometry" />
        </mxCell>
        <mxCell id="SVdgGltisaMeItz3Us6K-66" value="&lt;font style=&quot;font-size: 14px;&quot;&gt;md&lt;/font&gt;" style="text;html=1;align=center;verticalAlign=middle;resizable=0;points=[];autosize=1;strokeColor=none;fillColor=none;" parent="1" vertex="1">
          <mxGeometry x="-220" y="20" width="40" height="30" as="geometry" />
        </mxCell>
        <mxCell id="SVdgGltisaMeItz3Us6K-67" value="&lt;font style=&quot;font-size: 14px;&quot;&gt;lg&lt;/font&gt;" style="text;html=1;align=center;verticalAlign=middle;resizable=0;points=[];autosize=1;strokeColor=none;fillColor=none;" parent="1" vertex="1">
          <mxGeometry x="-15" y="20" width="30" height="30" as="geometry" />
        </mxCell>
        <mxCell id="SVdgGltisaMeItz3Us6K-68" value="&lt;font style=&quot;font-size: 14px;&quot;&gt;xl&lt;/font&gt;" style="text;html=1;align=center;verticalAlign=middle;resizable=0;points=[];autosize=1;strokeColor=none;fillColor=none;" parent="1" vertex="1">
          <mxGeometry x="225" y="20" width="30" height="30" as="geometry" />
        </mxCell>
        <mxCell id="SVdgGltisaMeItz3Us6K-69" value="&lt;font style=&quot;font-size: 14px;&quot;&gt;xxl&lt;/font&gt;" style="text;html=1;align=center;verticalAlign=middle;resizable=0;points=[];autosize=1;strokeColor=none;fillColor=none;" parent="1" vertex="1">
          <mxGeometry x="500" y="20" width="40" height="30" as="geometry" />
        </mxCell>
        <mxCell id="SVdgGltisaMeItz3Us6K-70" value="&lt;font style=&quot;font-size: 18px;&quot;&gt;Breakpoints&lt;/font&gt;" style="text;html=1;align=center;verticalAlign=middle;resizable=0;points=[];autosize=1;strokeColor=#d6b656;fillColor=#fff2cc;" parent="1" vertex="1">
          <mxGeometry x="-725" y="20" width="120" height="40" as="geometry" />
        </mxCell>
      </root>
    </mxGraphModel>
  </diagram>
  <diagram id="qrBsUbcapl7eFYw4eqJ6" name="DB">
    <mxGraphModel dx="2524" dy="836" grid="1" gridSize="10" guides="1" tooltips="1" connect="1" arrows="1" fold="1" page="1" pageScale="1" pageWidth="850" pageHeight="1100" math="0" shadow="0">
      <root>
        <mxCell id="0" />
        <mxCell id="1" parent="0" />
        <mxCell id="4_UqbCLgLjUOx19SUNfH-1" value="APico - Schools" style="swimlane;whiteSpace=wrap;html=1;" parent="1" vertex="1">
          <mxGeometry x="80" y="380" width="520" height="200" as="geometry" />
        </mxCell>
        <mxCell id="4_UqbCLgLjUOx19SUNfH-2" value="Frontend" style="rounded=0;whiteSpace=wrap;html=1;fillColor=#dae8fc;strokeColor=#6c8ebf;" parent="4_UqbCLgLjUOx19SUNfH-1" vertex="1">
          <mxGeometry x="30" y="50" width="120" height="60" as="geometry" />
        </mxCell>
        <mxCell id="4_UqbCLgLjUOx19SUNfH-3" value="Backend" style="rounded=1;whiteSpace=wrap;html=1;fillColor=#f8cecc;strokeColor=#b85450;" parent="4_UqbCLgLjUOx19SUNfH-1" vertex="1">
          <mxGeometry x="355" y="50" width="120" height="60" as="geometry" />
        </mxCell>
        <mxCell id="4_UqbCLgLjUOx19SUNfH-7" style="edgeStyle=orthogonalEdgeStyle;html=1;entryX=0.5;entryY=1;entryDx=0;entryDy=0;curved=1;" parent="1" source="4_UqbCLgLjUOx19SUNfH-4" target="4_UqbCLgLjUOx19SUNfH-3" edge="1">
          <mxGeometry relative="1" as="geometry" />
        </mxCell>
        <mxCell id="4_UqbCLgLjUOx19SUNfH-4" value="" style="strokeWidth=1;shadow=0;dashed=0;align=center;html=1;shape=mxgraph.mockup.containers.browserWindow;rSize=0;strokeColor=#666666;strokeColor2=#008cff;strokeColor3=#c4c4c4;mainText=,;recursiveResize=0;" parent="1" vertex="1">
          <mxGeometry x="145" y="700" width="410" height="380" as="geometry" />
        </mxCell>
        <mxCell id="4_UqbCLgLjUOx19SUNfH-5" value="Page 1" style="strokeWidth=1;shadow=0;dashed=0;align=center;html=1;shape=mxgraph.mockup.containers.anchor;fontSize=17;fontColor=#666666;align=left;" parent="4_UqbCLgLjUOx19SUNfH-4" vertex="1">
          <mxGeometry x="60" y="12" width="110" height="26" as="geometry" />
        </mxCell>
        <mxCell id="4_UqbCLgLjUOx19SUNfH-6" value="https://www.draw.io" style="strokeWidth=1;shadow=0;dashed=0;align=center;html=1;shape=mxgraph.mockup.containers.anchor;rSize=0;fontSize=17;fontColor=#666666;align=left;" parent="4_UqbCLgLjUOx19SUNfH-4" vertex="1">
          <mxGeometry x="130" y="60" width="250" height="26" as="geometry" />
        </mxCell>
        <mxCell id="4_UqbCLgLjUOx19SUNfH-9" value="" style="endArrow=classic;startArrow=classic;html=1;" parent="1" edge="1">
          <mxGeometry width="50" height="50" relative="1" as="geometry">
            <mxPoint x="250" y="470" as="sourcePoint" />
            <mxPoint x="410" y="470" as="targetPoint" />
          </mxGeometry>
        </mxCell>
        <mxCell id="4_UqbCLgLjUOx19SUNfH-11" value="&lt;h1&gt;Frontend&lt;/h1&gt;&lt;div&gt;1- Working under /frontend folder&lt;/div&gt;&lt;div&gt;2- HTML/CSS/JS&lt;/div&gt;&lt;div&gt;3- Use Bootstrap and JQuery&lt;/div&gt;&lt;div&gt;4- Sending Http Request to the Backend using fetch() function.&lt;/div&gt;&lt;div&gt;5- Visualisation of the information.&lt;/div&gt;&lt;div&gt;6- UI / UX&lt;/div&gt;" style="text;html=1;strokeColor=#6c8ebf;fillColor=#dae8fc;spacing=5;spacingTop=-20;whiteSpace=wrap;overflow=hidden;rounded=0;" parent="1" vertex="1">
          <mxGeometry x="-300" y="230" width="360" height="180" as="geometry" />
        </mxCell>
        <mxCell id="4_UqbCLgLjUOx19SUNfH-12" value="&lt;h1&gt;Backend&lt;/h1&gt;&lt;div&gt;1- Creating routes&lt;/div&gt;&lt;div&gt;2- Creating Middlewares&lt;/div&gt;&lt;div&gt;3- Design your business logic.&lt;/div&gt;&lt;div&gt;4- Connect with DB and fetch/manipulate data.&lt;/div&gt;&lt;div&gt;5- Send Http Response to the Frontend.&lt;/div&gt;&lt;div&gt;6- Use Nodejs, NPM packages, ExpressJS and Ejs.&lt;/div&gt;" style="text;html=1;strokeColor=#b85450;fillColor=#f8cecc;spacing=5;spacingTop=-20;whiteSpace=wrap;overflow=hidden;rounded=0;" parent="1" vertex="1">
          <mxGeometry x="380" y="200" width="300" height="150" as="geometry" />
        </mxCell>
        <mxCell id="4_UqbCLgLjUOx19SUNfH-13" value="" style="image;html=1;image=img/lib/clip_art/computers/Database_128x128.png" parent="1" vertex="1">
          <mxGeometry x="930" y="450" width="130" height="150" as="geometry" />
        </mxCell>
        <mxCell id="4_UqbCLgLjUOx19SUNfH-14" value="Database : SQL Server, MySql, Sqlite ...." style="text;html=1;align=center;verticalAlign=middle;resizable=0;points=[];autosize=1;strokeColor=#666666;fillColor=#f5f5f5;fontColor=#333333;" parent="1" vertex="1">
          <mxGeometry x="875" y="600" width="240" height="30" as="geometry" />
        </mxCell>
        <mxCell id="4_UqbCLgLjUOx19SUNfH-15" value="&lt;h1&gt;Database&lt;/h1&gt;&lt;div&gt;1- Design the data structure&lt;/div&gt;&lt;div&gt;2- Create tables&lt;/div&gt;&lt;div&gt;3- Create othe DB objects ( Views, Functions, Triggers, &lt;span style=&quot;white-space: pre;&quot;&gt;&#x9;&lt;/span&gt;Stored Procedures&amp;nbsp; ) if needed.&lt;/div&gt;" style="text;html=1;strokeColor=#666666;fillColor=#f5f5f5;spacing=5;spacingTop=-20;whiteSpace=wrap;overflow=hidden;rounded=0;fontColor=#333333;" parent="1" vertex="1">
          <mxGeometry x="880" y="290" width="330" height="120" as="geometry" />
        </mxCell>
        <mxCell id="4_UqbCLgLjUOx19SUNfH-16" value="" style="shape=link;html=1;curved=1;" parent="1" edge="1">
          <mxGeometry width="100" relative="1" as="geometry">
            <mxPoint x="840" y="190" as="sourcePoint" />
            <mxPoint x="840" y="640" as="targetPoint" />
          </mxGeometry>
        </mxCell>
        <mxCell id="4_UqbCLgLjUOx19SUNfH-17" style="edgeStyle=orthogonalEdgeStyle;curved=1;html=1;entryX=0.077;entryY=0.267;entryDx=0;entryDy=0;entryPerimeter=0;startArrow=none;" parent="1" source="4_UqbCLgLjUOx19SUNfH-18" target="4_UqbCLgLjUOx19SUNfH-13" edge="1">
          <mxGeometry relative="1" as="geometry">
            <mxPoint x="780" y="460" as="targetPoint" />
          </mxGeometry>
        </mxCell>
        <mxCell id="4_UqbCLgLjUOx19SUNfH-20" value="" style="edgeStyle=orthogonalEdgeStyle;curved=1;html=1;entryX=0.077;entryY=0.267;entryDx=0;entryDy=0;entryPerimeter=0;endArrow=none;" parent="1" source="4_UqbCLgLjUOx19SUNfH-3" target="4_UqbCLgLjUOx19SUNfH-18" edge="1">
          <mxGeometry relative="1" as="geometry">
            <mxPoint x="940.0100000000002" y="490.05000000000007" as="targetPoint" />
            <mxPoint x="555" y="460.0526315789474" as="sourcePoint" />
          </mxGeometry>
        </mxCell>
        <mxCell id="4_UqbCLgLjUOx19SUNfH-18" value="Use mysql2 npm package" style="text;html=1;align=center;verticalAlign=middle;resizable=0;points=[];autosize=1;strokeColor=#666666;fillColor=#f5f5f5;fontColor=#333333;" parent="1" vertex="1">
          <mxGeometry x="650" y="460" width="160" height="30" as="geometry" />
        </mxCell>
      </root>
    </mxGraphModel>
  </diagram>
  <diagram id="a5Rk8_r1omhCbnofVay6" name="Apico server">
    <mxGraphModel dx="1674" dy="836" grid="1" gridSize="10" guides="1" tooltips="1" connect="1" arrows="1" fold="1" page="1" pageScale="1" pageWidth="850" pageHeight="1100" math="0" shadow="0">
      <root>
        <mxCell id="0" />
        <mxCell id="1" parent="0" />
        <mxCell id="2syD0o9gHN_ZeusMdBdu-1" value="&lt;font style=&quot;font-size: 20px;&quot;&gt;Frontend&lt;/font&gt;" style="text;html=1;align=center;verticalAlign=middle;whiteSpace=wrap;rounded=0;fillColor=#d5e8d4;strokeColor=#82b366;" vertex="1" parent="1">
          <mxGeometry x="100" y="240" width="110" height="30" as="geometry" />
        </mxCell>
        <mxCell id="2syD0o9gHN_ZeusMdBdu-2" value="&lt;font style=&quot;font-size: 21px;&quot;&gt;EJS &amp;amp; Frontend apps&lt;/font&gt;" style="rounded=0;whiteSpace=wrap;html=1;fillColor=#fff2cc;strokeColor=#d6b656;" vertex="1" parent="1">
          <mxGeometry x="90" y="170" width="480" height="40" as="geometry" />
        </mxCell>
        <mxCell id="2syD0o9gHN_ZeusMdBdu-3" value="All frontend related files under this folder" style="text;html=1;align=center;verticalAlign=middle;resizable=0;points=[];autosize=1;strokeColor=#b85450;fillColor=#f8cecc;" vertex="1" parent="1">
          <mxGeometry x="210" y="250" width="240" height="30" as="geometry" />
        </mxCell>
        <mxCell id="2syD0o9gHN_ZeusMdBdu-4" value="&lt;font style=&quot;font-size: 20px;&quot;&gt;frontend/dist/apps&lt;/font&gt;" style="text;html=1;align=center;verticalAlign=middle;resizable=0;points=[];autosize=1;strokeColor=#6c8ebf;fillColor=#dae8fc;" vertex="1" parent="1">
          <mxGeometry x="100" y="320" width="180" height="40" as="geometry" />
        </mxCell>
        <mxCell id="2syD0o9gHN_ZeusMdBdu-5" value="All apps related files under this folder" style="text;html=1;align=center;verticalAlign=middle;resizable=0;points=[];autosize=1;strokeColor=#b85450;fillColor=#f8cecc;" vertex="1" parent="1">
          <mxGeometry x="280" y="345" width="220" height="30" as="geometry" />
        </mxCell>
        <mxCell id="2syD0o9gHN_ZeusMdBdu-6" value="&lt;font style=&quot;font-size: 20px;&quot;&gt;frontend/shared&lt;/font&gt;" style="text;html=1;align=center;verticalAlign=middle;resizable=0;points=[];autosize=1;strokeColor=#666666;fillColor=#f5f5f5;fontColor=#333333;" vertex="1" parent="1">
          <mxGeometry x="110" y="443" width="160" height="40" as="geometry" />
        </mxCell>
        <mxCell id="2syD0o9gHN_ZeusMdBdu-7" value="All ejs related files under this folder" style="text;html=1;align=center;verticalAlign=middle;resizable=0;points=[];autosize=1;strokeColor=#b85450;fillColor=#f8cecc;" vertex="1" parent="1">
          <mxGeometry x="270" y="470" width="210" height="30" as="geometry" />
        </mxCell>
        <mxCell id="2syD0o9gHN_ZeusMdBdu-8" value="&lt;font style=&quot;font-size: 20px;&quot;&gt;frontend/shared/layouts&lt;/font&gt;" style="text;html=1;align=center;verticalAlign=middle;resizable=0;points=[];autosize=1;strokeColor=#666666;fillColor=#f5f5f5;fontColor=#333333;" vertex="1" parent="1">
          <mxGeometry x="110" y="540" width="230" height="40" as="geometry" />
        </mxCell>
        <mxCell id="2syD0o9gHN_ZeusMdBdu-9" value="&lt;font style=&quot;font-size: 20px;&quot;&gt;frontend/shared/partials&lt;/font&gt;" style="text;html=1;align=center;verticalAlign=middle;resizable=0;points=[];autosize=1;strokeColor=#666666;fillColor=#f5f5f5;fontColor=#333333;" vertex="1" parent="1">
          <mxGeometry x="110" y="630" width="230" height="40" as="geometry" />
        </mxCell>
        <mxCell id="2syD0o9gHN_ZeusMdBdu-10" value="Layouts to be used by apps" style="text;html=1;align=center;verticalAlign=middle;resizable=0;points=[];autosize=1;strokeColor=#b85450;fillColor=#f8cecc;" vertex="1" parent="1">
          <mxGeometry x="340" y="560" width="170" height="30" as="geometry" />
        </mxCell>
        <mxCell id="2syD0o9gHN_ZeusMdBdu-11" value="Partilas to be included in apps." style="text;html=1;align=center;verticalAlign=middle;resizable=0;points=[];autosize=1;strokeColor=#b85450;fillColor=#f8cecc;" vertex="1" parent="1">
          <mxGeometry x="340" y="650" width="190" height="30" as="geometry" />
        </mxCell>
        <mxCell id="2syD0o9gHN_ZeusMdBdu-12" value="frontend/dist/apps/posts" style="swimlane;whiteSpace=wrap;html=1;fillColor=#dae8fc;strokeColor=#6c8ebf;" vertex="1" parent="1">
          <mxGeometry x="1250" y="270" width="200" height="200" as="geometry" />
        </mxCell>
        <mxCell id="2syD0o9gHN_ZeusMdBdu-13" value="" style="verticalLabelPosition=bottom;html=1;verticalAlign=top;align=center;strokeColor=none;fillColor=#00BEF2;shape=mxgraph.azure.cloud_services_configuration_file;pointerEvents=1;" vertex="1" parent="2syD0o9gHN_ZeusMdBdu-12">
          <mxGeometry x="30" y="30" width="20" height="25" as="geometry" />
        </mxCell>
        <mxCell id="2syD0o9gHN_ZeusMdBdu-14" value="" style="verticalLabelPosition=bottom;html=1;verticalAlign=top;align=center;strokeColor=none;fillColor=#00BEF2;shape=mxgraph.azure.cloud_services_configuration_file;pointerEvents=1;" vertex="1" parent="2syD0o9gHN_ZeusMdBdu-12">
          <mxGeometry x="31" y="74" width="20" height="25" as="geometry" />
        </mxCell>
        <mxCell id="2syD0o9gHN_ZeusMdBdu-15" value="" style="verticalLabelPosition=bottom;html=1;verticalAlign=top;align=center;strokeColor=none;fillColor=#00BEF2;shape=mxgraph.azure.cloud_services_configuration_file;pointerEvents=1;" vertex="1" parent="2syD0o9gHN_ZeusMdBdu-12">
          <mxGeometry x="30" y="114" width="20" height="25" as="geometry" />
        </mxCell>
        <mxCell id="2syD0o9gHN_ZeusMdBdu-16" value="" style="verticalLabelPosition=bottom;html=1;verticalAlign=top;align=center;strokeColor=none;fillColor=#00BEF2;shape=mxgraph.azure.cloud_services_configuration_file;pointerEvents=1;" vertex="1" parent="2syD0o9gHN_ZeusMdBdu-12">
          <mxGeometry x="30" y="160" width="20" height="25" as="geometry" />
        </mxCell>
        <mxCell id="2syD0o9gHN_ZeusMdBdu-17" value="indes.ejs" style="text;html=1;align=center;verticalAlign=middle;resizable=0;points=[];autosize=1;strokeColor=none;fillColor=none;" vertex="1" parent="2syD0o9gHN_ZeusMdBdu-12">
          <mxGeometry x="45" y="74" width="70" height="30" as="geometry" />
        </mxCell>
        <mxCell id="2syD0o9gHN_ZeusMdBdu-18" value="index.js" style="text;html=1;align=center;verticalAlign=middle;resizable=0;points=[];autosize=1;strokeColor=#82b366;fillColor=#d5e8d4;" vertex="1" parent="2syD0o9gHN_ZeusMdBdu-12">
          <mxGeometry x="45" y="111.5" width="60" height="30" as="geometry" />
        </mxCell>
        <mxCell id="2syD0o9gHN_ZeusMdBdu-19" value="index.css" style="text;html=1;align=center;verticalAlign=middle;resizable=0;points=[];autosize=1;strokeColor=#d6b656;fillColor=#fff2cc;" vertex="1" parent="2syD0o9gHN_ZeusMdBdu-12">
          <mxGeometry x="45" y="155" width="70" height="30" as="geometry" />
        </mxCell>
        <mxCell id="2syD0o9gHN_ZeusMdBdu-20" value="config.json" style="text;html=1;align=center;verticalAlign=middle;resizable=0;points=[];autosize=1;strokeColor=none;fillColor=none;" vertex="1" parent="1">
          <mxGeometry x="1290" y="298" width="80" height="30" as="geometry" />
        </mxCell>
        <mxCell id="2syD0o9gHN_ZeusMdBdu-21" value="App configuration ( layout, access and params )" style="text;html=1;align=center;verticalAlign=middle;resizable=0;points=[];autosize=1;strokeColor=#b85450;fillColor=#f8cecc;" vertex="1" parent="1">
          <mxGeometry x="905" y="250" width="280" height="30" as="geometry" />
        </mxCell>
        <mxCell id="2syD0o9gHN_ZeusMdBdu-22" value="Entry point ejs file for the app ( html + js )" style="text;html=1;align=center;verticalAlign=middle;resizable=0;points=[];autosize=1;strokeColor=#b85450;fillColor=#f8cecc;" vertex="1" parent="1">
          <mxGeometry x="940" y="320" width="240" height="30" as="geometry" />
        </mxCell>
        <mxCell id="2syD0o9gHN_ZeusMdBdu-23" value="Javascript script for the app ( running in the browser )" style="text;html=1;align=center;verticalAlign=middle;resizable=0;points=[];autosize=1;strokeColor=#b85450;fillColor=#f8cecc;" vertex="1" parent="1">
          <mxGeometry x="870" y="390" width="310" height="30" as="geometry" />
        </mxCell>
        <mxCell id="2syD0o9gHN_ZeusMdBdu-24" value="Style - CSS - for the app ( running in the browser )" style="text;html=1;align=center;verticalAlign=middle;resizable=0;points=[];autosize=1;strokeColor=#b85450;fillColor=#f8cecc;" vertex="1" parent="1">
          <mxGeometry x="890" y="460" width="290" height="30" as="geometry" />
        </mxCell>
        <mxCell id="2syD0o9gHN_ZeusMdBdu-25" style="edgeStyle=orthogonalEdgeStyle;rounded=0;orthogonalLoop=1;jettySize=auto;html=1;entryX=0;entryY=0.5;entryDx=0;entryDy=0;entryPerimeter=0;curved=1;" edge="1" parent="1" source="2syD0o9gHN_ZeusMdBdu-21" target="2syD0o9gHN_ZeusMdBdu-13">
          <mxGeometry relative="1" as="geometry" />
        </mxCell>
        <mxCell id="2syD0o9gHN_ZeusMdBdu-26" style="edgeStyle=orthogonalEdgeStyle;rounded=0;orthogonalLoop=1;jettySize=auto;html=1;entryX=0;entryY=0.5;entryDx=0;entryDy=0;entryPerimeter=0;curved=1;" edge="1" parent="1" source="2syD0o9gHN_ZeusMdBdu-22" target="2syD0o9gHN_ZeusMdBdu-14">
          <mxGeometry relative="1" as="geometry" />
        </mxCell>
        <mxCell id="2syD0o9gHN_ZeusMdBdu-27" style="edgeStyle=orthogonalEdgeStyle;rounded=0;orthogonalLoop=1;jettySize=auto;html=1;entryX=0;entryY=0.5;entryDx=0;entryDy=0;entryPerimeter=0;curved=1;" edge="1" parent="1" source="2syD0o9gHN_ZeusMdBdu-23" target="2syD0o9gHN_ZeusMdBdu-15">
          <mxGeometry relative="1" as="geometry" />
        </mxCell>
        <mxCell id="2syD0o9gHN_ZeusMdBdu-28" style="edgeStyle=orthogonalEdgeStyle;rounded=0;orthogonalLoop=1;jettySize=auto;html=1;entryX=0;entryY=0.5;entryDx=0;entryDy=0;entryPerimeter=0;curved=1;" edge="1" parent="1" source="2syD0o9gHN_ZeusMdBdu-24" target="2syD0o9gHN_ZeusMdBdu-16">
          <mxGeometry relative="1" as="geometry" />
        </mxCell>
        <mxCell id="2syD0o9gHN_ZeusMdBdu-29" style="edgeStyle=orthogonalEdgeStyle;rounded=0;orthogonalLoop=1;jettySize=auto;html=1;entryX=0.5;entryY=0;entryDx=0;entryDy=0;" edge="1" parent="1" source="2syD0o9gHN_ZeusMdBdu-30" target="2syD0o9gHN_ZeusMdBdu-31">
          <mxGeometry relative="1" as="geometry" />
        </mxCell>
        <mxCell id="2syD0o9gHN_ZeusMdBdu-30" value="http://localhost3000/posts" style="rounded=0;whiteSpace=wrap;html=1;fillColor=#d5e8d4;strokeColor=#82b366;" vertex="1" parent="1">
          <mxGeometry x="1270" width="250" height="30" as="geometry" />
        </mxCell>
        <mxCell id="2syD0o9gHN_ZeusMdBdu-31" value="Apico" style="shape=process;whiteSpace=wrap;html=1;backgroundOutline=1;fillColor=#ffe6cc;strokeColor=#d79b00;" vertex="1" parent="1">
          <mxGeometry x="1335" y="60" width="120" height="40" as="geometry" />
        </mxCell>
        <mxCell id="2syD0o9gHN_ZeusMdBdu-32" style="edgeStyle=orthogonalEdgeStyle;rounded=0;orthogonalLoop=1;jettySize=auto;html=1;fillColor=#dae8fc;strokeColor=#6c8ebf;" edge="1" parent="1" source="2syD0o9gHN_ZeusMdBdu-34" target="2syD0o9gHN_ZeusMdBdu-12">
          <mxGeometry relative="1" as="geometry" />
        </mxCell>
        <mxCell id="2syD0o9gHN_ZeusMdBdu-33" style="edgeStyle=orthogonalEdgeStyle;rounded=0;orthogonalLoop=1;jettySize=auto;html=1;entryX=0;entryY=0.5;entryDx=0;entryDy=0;" edge="1" parent="1" source="2syD0o9gHN_ZeusMdBdu-34" target="2syD0o9gHN_ZeusMdBdu-36">
          <mxGeometry relative="1" as="geometry" />
        </mxCell>
        <mxCell id="2syD0o9gHN_ZeusMdBdu-34" value="Find the app" style="text;html=1;align=center;verticalAlign=middle;resizable=0;points=[];autosize=1;strokeColor=#6c8ebf;fillColor=#dae8fc;" vertex="1" parent="1">
          <mxGeometry x="1335" y="140" width="90" height="30" as="geometry" />
        </mxCell>
        <mxCell id="2syD0o9gHN_ZeusMdBdu-35" style="edgeStyle=orthogonalEdgeStyle;rounded=0;orthogonalLoop=1;jettySize=auto;html=1;entryX=0.556;entryY=-0.033;entryDx=0;entryDy=0;entryPerimeter=0;fillColor=#dae8fc;strokeColor=#6c8ebf;" edge="1" parent="1" source="2syD0o9gHN_ZeusMdBdu-31" target="2syD0o9gHN_ZeusMdBdu-34">
          <mxGeometry relative="1" as="geometry" />
        </mxCell>
        <mxCell id="2syD0o9gHN_ZeusMdBdu-36" value="" style="rhombus;whiteSpace=wrap;html=1;" vertex="1" parent="1">
          <mxGeometry x="1480" y="115" width="80" height="80" as="geometry" />
        </mxCell>
        <mxCell id="2syD0o9gHN_ZeusMdBdu-37" value="No" style="text;html=1;align=center;verticalAlign=middle;resizable=0;points=[];autosize=1;strokeColor=none;fillColor=none;" vertex="1" parent="1">
          <mxGeometry x="1540" y="50" width="40" height="30" as="geometry" />
        </mxCell>
        <mxCell id="2syD0o9gHN_ZeusMdBdu-38" value="" style="edgeStyle=orthogonalEdgeStyle;rounded=0;orthogonalLoop=1;jettySize=auto;html=1;" edge="1" parent="1" source="2syD0o9gHN_ZeusMdBdu-39" target="2syD0o9gHN_ZeusMdBdu-43">
          <mxGeometry relative="1" as="geometry" />
        </mxCell>
        <mxCell id="2syD0o9gHN_ZeusMdBdu-39" value="Yes" style="text;html=1;align=center;verticalAlign=middle;resizable=0;points=[];autosize=1;strokeColor=none;fillColor=none;" vertex="1" parent="1">
          <mxGeometry x="1500" y="198" width="40" height="30" as="geometry" />
        </mxCell>
        <mxCell id="2syD0o9gHN_ZeusMdBdu-40" style="edgeStyle=orthogonalEdgeStyle;rounded=0;orthogonalLoop=1;jettySize=auto;html=1;entryX=0;entryY=0.467;entryDx=0;entryDy=0;entryPerimeter=0;" edge="1" parent="1" source="2syD0o9gHN_ZeusMdBdu-36" target="2syD0o9gHN_ZeusMdBdu-37">
          <mxGeometry relative="1" as="geometry" />
        </mxCell>
        <mxCell id="2syD0o9gHN_ZeusMdBdu-41" value="Not found page" style="strokeWidth=2;html=1;shape=mxgraph.flowchart.document2;whiteSpace=wrap;size=0.25;" vertex="1" parent="1">
          <mxGeometry x="1640" y="35" width="100" height="60" as="geometry" />
        </mxCell>
        <mxCell id="2syD0o9gHN_ZeusMdBdu-42" style="edgeStyle=orthogonalEdgeStyle;rounded=0;orthogonalLoop=1;jettySize=auto;html=1;entryX=0;entryY=0.5;entryDx=0;entryDy=0;entryPerimeter=0;" edge="1" parent="1" source="2syD0o9gHN_ZeusMdBdu-37" target="2syD0o9gHN_ZeusMdBdu-41">
          <mxGeometry relative="1" as="geometry" />
        </mxCell>
        <mxCell id="2syD0o9gHN_ZeusMdBdu-43" value="Find the config file" style="whiteSpace=wrap;html=1;" vertex="1" parent="1">
          <mxGeometry x="1600" y="198" width="120" height="30" as="geometry" />
        </mxCell>
        <mxCell id="2syD0o9gHN_ZeusMdBdu-44" style="edgeStyle=orthogonalEdgeStyle;rounded=0;orthogonalLoop=1;jettySize=auto;html=1;" edge="1" parent="1" source="2syD0o9gHN_ZeusMdBdu-47" target="2syD0o9gHN_ZeusMdBdu-20">
          <mxGeometry relative="1" as="geometry" />
        </mxCell>
        <mxCell id="2syD0o9gHN_ZeusMdBdu-45" value="" style="edgeStyle=orthogonalEdgeStyle;rounded=0;orthogonalLoop=1;jettySize=auto;html=1;" edge="1" parent="1" source="2syD0o9gHN_ZeusMdBdu-47" target="2syD0o9gHN_ZeusMdBdu-55">
          <mxGeometry relative="1" as="geometry" />
        </mxCell>
        <mxCell id="2syD0o9gHN_ZeusMdBdu-46" value="Find the layout" style="edgeLabel;html=1;align=center;verticalAlign=middle;resizable=0;points=[];" vertex="1" connectable="0" parent="2syD0o9gHN_ZeusMdBdu-45">
          <mxGeometry x="-0.1867" y="-2" relative="1" as="geometry">
            <mxPoint as="offset" />
          </mxGeometry>
        </mxCell>
        <mxCell id="2syD0o9gHN_ZeusMdBdu-47" value="&lt;h1 style=&quot;margin-top: 0px;&quot;&gt;Config&lt;/h1&gt;&lt;div&gt;{&lt;/div&gt;&lt;div&gt;&lt;span style=&quot;white-space: pre;&quot;&gt;&#x9;&lt;/span&gt;layout: &quot;&lt;span style=&quot;color: rgb(163, 21, 21); background-color: rgb(255, 255, 255); font-family: Consolas, &amp;quot;Courier New&amp;quot;, monospace; font-size: 14px; white-space: pre;&quot;&gt;shared/layouts/default&lt;/span&gt;&lt;span style=&quot;background-color: initial;&quot;&gt;&quot;&lt;/span&gt;&lt;/div&gt;&lt;div&gt;&lt;br&gt;&lt;/div&gt;&lt;div&gt;}&lt;/div&gt;" style="text;html=1;whiteSpace=wrap;overflow=hidden;rounded=0;fillColor=#fff2cc;strokeColor=#d6b656;" vertex="1" parent="1">
          <mxGeometry x="1540" y="230" width="280" height="120" as="geometry" />
        </mxCell>
        <mxCell id="2syD0o9gHN_ZeusMdBdu-48" value="shared/layoute/defaul.ejs" style="swimlane;whiteSpace=wrap;html=1;fillColor=#f8cecc;strokeColor=#b85450;startSize=23;" vertex="1" parent="1">
          <mxGeometry x="2025" y="490" width="200" height="250" as="geometry" />
        </mxCell>
        <mxCell id="2syD0o9gHN_ZeusMdBdu-49" value="HTML&amp;nbsp;" style="text;html=1;align=center;verticalAlign=middle;resizable=0;points=[];autosize=1;strokeColor=#666666;fillColor=#f5f5f5;fontColor=#333333;" vertex="1" parent="2syD0o9gHN_ZeusMdBdu-48">
          <mxGeometry x="30" y="40" width="60" height="30" as="geometry" />
        </mxCell>
        <mxCell id="2syD0o9gHN_ZeusMdBdu-50" value="&amp;lt;%- body %&amp;gt;" style="text;html=1;align=center;verticalAlign=middle;resizable=0;points=[];autosize=1;strokeColor=none;fillColor=none;" vertex="1" parent="2syD0o9gHN_ZeusMdBdu-48">
          <mxGeometry x="55" y="130" width="100" height="30" as="geometry" />
        </mxCell>
        <mxCell id="2syD0o9gHN_ZeusMdBdu-51" value="Styles" style="text;html=1;align=center;verticalAlign=middle;resizable=0;points=[];autosize=1;strokeColor=#d6b656;fillColor=#fff2cc;" vertex="1" parent="2syD0o9gHN_ZeusMdBdu-48">
          <mxGeometry x="55" y="80" width="60" height="30" as="geometry" />
        </mxCell>
        <mxCell id="2syD0o9gHN_ZeusMdBdu-52" value="Scripts" style="text;html=1;align=center;verticalAlign=middle;resizable=0;points=[];autosize=1;strokeColor=#82b366;fillColor=#d5e8d4;" vertex="1" parent="2syD0o9gHN_ZeusMdBdu-48">
          <mxGeometry x="60" y="208" width="60" height="30" as="geometry" />
        </mxCell>
        <mxCell id="2syD0o9gHN_ZeusMdBdu-53" value="&lt;span style=&quot;color: rgb(0, 0, 0); font-family: Helvetica; font-size: 12px; font-style: normal; font-variant-ligatures: normal; font-variant-caps: normal; font-weight: 400; letter-spacing: normal; orphans: 2; text-align: center; text-indent: 0px; text-transform: none; widows: 2; word-spacing: 0px; -webkit-text-stroke-width: 0px; white-space: nowrap; background-color: rgb(251, 251, 251); text-decoration-thickness: initial; text-decoration-style: initial; text-decoration-color: initial; display: inline !important; float: none;&quot;&gt;&amp;lt;%- posts.getAllPosts() %&amp;gt;&lt;/span&gt;" style="text;whiteSpace=wrap;html=1;" vertex="1" parent="2syD0o9gHN_ZeusMdBdu-48">
          <mxGeometry x="20" y="160" width="180" height="40" as="geometry" />
        </mxCell>
        <mxCell id="2syD0o9gHN_ZeusMdBdu-54" style="edgeStyle=orthogonalEdgeStyle;rounded=0;orthogonalLoop=1;jettySize=auto;html=1;" edge="1" parent="1" source="2syD0o9gHN_ZeusMdBdu-55" target="2syD0o9gHN_ZeusMdBdu-60">
          <mxGeometry relative="1" as="geometry" />
        </mxCell>
        <mxCell id="2syD0o9gHN_ZeusMdBdu-55" value="" style="rhombus;whiteSpace=wrap;html=1;align=left;verticalAlign=top;fillColor=#fff2cc;strokeColor=#d6b656;gradientColor=none;rounded=0;" vertex="1" parent="1">
          <mxGeometry x="2080" y="250" width="80" height="80" as="geometry" />
        </mxCell>
        <mxCell id="2syD0o9gHN_ZeusMdBdu-56" style="edgeStyle=orthogonalEdgeStyle;rounded=0;orthogonalLoop=1;jettySize=auto;html=1;entryX=0.5;entryY=0;entryDx=0;entryDy=0;" edge="1" parent="1" source="2syD0o9gHN_ZeusMdBdu-57" target="2syD0o9gHN_ZeusMdBdu-48">
          <mxGeometry relative="1" as="geometry" />
        </mxCell>
        <mxCell id="2syD0o9gHN_ZeusMdBdu-57" value="Yes" style="text;html=1;align=center;verticalAlign=middle;resizable=0;points=[];autosize=1;strokeColor=none;fillColor=none;" vertex="1" parent="1">
          <mxGeometry x="2100" y="360" width="40" height="30" as="geometry" />
        </mxCell>
        <mxCell id="2syD0o9gHN_ZeusMdBdu-58" style="edgeStyle=orthogonalEdgeStyle;rounded=0;orthogonalLoop=1;jettySize=auto;html=1;entryX=0.525;entryY=-0.1;entryDx=0;entryDy=0;entryPerimeter=0;" edge="1" parent="1" source="2syD0o9gHN_ZeusMdBdu-55" target="2syD0o9gHN_ZeusMdBdu-57">
          <mxGeometry relative="1" as="geometry" />
        </mxCell>
        <mxCell id="2syD0o9gHN_ZeusMdBdu-59" value="" style="edgeStyle=orthogonalEdgeStyle;rounded=0;orthogonalLoop=1;jettySize=auto;html=1;" edge="1" parent="1" source="2syD0o9gHN_ZeusMdBdu-60" target="2syD0o9gHN_ZeusMdBdu-61">
          <mxGeometry relative="1" as="geometry" />
        </mxCell>
        <mxCell id="2syD0o9gHN_ZeusMdBdu-60" value="No" style="text;html=1;align=center;verticalAlign=middle;resizable=0;points=[];autosize=1;strokeColor=none;fillColor=none;" vertex="1" parent="1">
          <mxGeometry x="2100" y="190" width="40" height="30" as="geometry" />
        </mxCell>
        <mxCell id="2syD0o9gHN_ZeusMdBdu-61" value="Erorr" style="text;html=1;align=center;verticalAlign=middle;resizable=0;points=[];autosize=1;strokeColor=none;fillColor=none;" vertex="1" parent="1">
          <mxGeometry x="2095" y="80" width="50" height="30" as="geometry" />
        </mxCell>
        <mxCell id="2syD0o9gHN_ZeusMdBdu-62" style="edgeStyle=orthogonalEdgeStyle;rounded=0;orthogonalLoop=1;jettySize=auto;html=1;" edge="1" parent="1" source="2syD0o9gHN_ZeusMdBdu-64" target="2syD0o9gHN_ZeusMdBdu-50">
          <mxGeometry relative="1" as="geometry" />
        </mxCell>
        <mxCell id="2syD0o9gHN_ZeusMdBdu-63" value="EJS" style="edgeLabel;html=1;align=center;verticalAlign=middle;resizable=0;points=[];" vertex="1" connectable="0" parent="2syD0o9gHN_ZeusMdBdu-62">
          <mxGeometry x="-0.0125" relative="1" as="geometry">
            <mxPoint as="offset" />
          </mxGeometry>
        </mxCell>
        <mxCell id="2syD0o9gHN_ZeusMdBdu-64" value="frontend/dist/apps/posts/index.ejs" style="swimlane;whiteSpace=wrap;html=1;fillColor=#d5e8d4;strokeColor=#82b366;" vertex="1" parent="1">
          <mxGeometry x="1620" y="470" width="300" height="180" as="geometry" />
        </mxCell>
        <mxCell id="2syD0o9gHN_ZeusMdBdu-65" value="HTML" style="text;html=1;align=center;verticalAlign=middle;resizable=0;points=[];autosize=1;strokeColor=#666666;fillColor=#f5f5f5;fontColor=#333333;" vertex="1" parent="2syD0o9gHN_ZeusMdBdu-64">
          <mxGeometry x="50" y="38" width="60" height="30" as="geometry" />
        </mxCell>
        <mxCell id="2syD0o9gHN_ZeusMdBdu-66" value="&lt;span style=&quot;color: rgb(0, 0, 0); font-family: Helvetica; font-size: 12px; font-style: normal; font-variant-ligatures: normal; font-variant-caps: normal; font-weight: 400; letter-spacing: normal; orphans: 2; text-align: center; text-indent: 0px; text-transform: none; widows: 2; word-spacing: 0px; -webkit-text-stroke-width: 0px; white-space: nowrap; background-color: rgb(251, 251, 251); text-decoration-thickness: initial; text-decoration-style: initial; text-decoration-color: initial; display: inline !important; float: none;&quot;&gt;&amp;lt;%- posts.getAllPosts() %&amp;gt;&lt;/span&gt;" style="text;whiteSpace=wrap;html=1;" vertex="1" parent="2syD0o9gHN_ZeusMdBdu-64">
          <mxGeometry x="60" y="130" width="180" height="40" as="geometry" />
        </mxCell>
        <mxCell id="2syD0o9gHN_ZeusMdBdu-67" style="edgeStyle=orthogonalEdgeStyle;rounded=0;orthogonalLoop=1;jettySize=auto;html=1;entryX=1;entryY=0.5;entryDx=0;entryDy=0;" edge="1" parent="1" source="2syD0o9gHN_ZeusMdBdu-69" target="2syD0o9gHN_ZeusMdBdu-70">
          <mxGeometry relative="1" as="geometry" />
        </mxCell>
        <mxCell id="2syD0o9gHN_ZeusMdBdu-68" value="EJS" style="edgeLabel;html=1;align=center;verticalAlign=middle;resizable=0;points=[];" vertex="1" connectable="0" parent="2syD0o9gHN_ZeusMdBdu-67">
          <mxGeometry x="0.4185" y="2" relative="1" as="geometry">
            <mxPoint as="offset" />
          </mxGeometry>
        </mxCell>
        <mxCell id="2syD0o9gHN_ZeusMdBdu-69" value="&amp;lt;%- include( ../shared/partials/user ) %&amp;gt;" style="text;html=1;align=center;verticalAlign=middle;resizable=0;points=[];autosize=1;strokeColor=none;fillColor=none;" vertex="1" parent="1">
          <mxGeometry x="1660" y="548" width="240" height="30" as="geometry" />
        </mxCell>
        <mxCell id="2syD0o9gHN_ZeusMdBdu-70" value="frontend/shared/partials/user.ejs" style="swimlane;whiteSpace=wrap;html=1;fillColor=#ffe6cc;strokeColor=#d79b00;" vertex="1" parent="1">
          <mxGeometry x="1230" y="550" width="250" height="160" as="geometry" />
        </mxCell>
        <mxCell id="2syD0o9gHN_ZeusMdBdu-71" value="HTML" style="text;html=1;align=center;verticalAlign=middle;resizable=0;points=[];autosize=1;strokeColor=#666666;fillColor=#f5f5f5;fontColor=#333333;" vertex="1" parent="1">
          <mxGeometry x="1360" y="588" width="60" height="30" as="geometry" />
        </mxCell>
        <mxCell id="2syD0o9gHN_ZeusMdBdu-72" value="&amp;lt;%- include() %&amp;gt;" style="text;html=1;align=center;verticalAlign=middle;resizable=0;points=[];autosize=1;strokeColor=none;fillColor=none;" vertex="1" parent="1">
          <mxGeometry x="1280" y="628" width="120" height="30" as="geometry" />
        </mxCell>
        <mxCell id="2syD0o9gHN_ZeusMdBdu-73" style="edgeStyle=orthogonalEdgeStyle;rounded=0;orthogonalLoop=1;jettySize=auto;html=1;entryX=1.014;entryY=0.333;entryDx=0;entryDy=0;entryPerimeter=0;" edge="1" parent="1" source="2syD0o9gHN_ZeusMdBdu-64" target="2syD0o9gHN_ZeusMdBdu-17">
          <mxGeometry relative="1" as="geometry">
            <Array as="points">
              <mxPoint x="1770" y="420" />
              <mxPoint x="1493" y="420" />
              <mxPoint x="1493" y="354" />
            </Array>
          </mxGeometry>
        </mxCell>
        <mxCell id="2syD0o9gHN_ZeusMdBdu-74" value="" style="shape=link;html=1;rounded=0;" edge="1" parent="1">
          <mxGeometry width="100" relative="1" as="geometry">
            <mxPoint x="2230" y="390" as="sourcePoint" />
            <mxPoint x="2230" y="800" as="targetPoint" />
          </mxGeometry>
        </mxCell>
        <mxCell id="2syD0o9gHN_ZeusMdBdu-75" value="To the browser" style="text;html=1;align=center;verticalAlign=middle;resizable=0;points=[];autosize=1;strokeColor=#005700;fillColor=#008a00;fontColor=#ffffff;" vertex="1" parent="1">
          <mxGeometry x="2230" y="580" width="100" height="30" as="geometry" />
        </mxCell>
        <mxCell id="2syD0o9gHN_ZeusMdBdu-76" value="locals" style="swimlane;whiteSpace=wrap;html=1;fillColor=#0050ef;fontColor=#ffffff;strokeColor=#001DBC;" vertex="1" parent="1">
          <mxGeometry x="860" y="790" width="210" height="230" as="geometry" />
        </mxCell>
        <mxCell id="2syD0o9gHN_ZeusMdBdu-77" value="" style="sketch=0;aspect=fixed;pointerEvents=1;shadow=0;dashed=0;html=1;strokeColor=none;labelPosition=center;verticalLabelPosition=bottom;verticalAlign=top;align=center;fillColor=#00188D;shape=mxgraph.azure.code_file" vertex="1" parent="2syD0o9gHN_ZeusMdBdu-76">
          <mxGeometry x="20" y="40" width="28.2" height="30" as="geometry" />
        </mxCell>
        <mxCell id="2syD0o9gHN_ZeusMdBdu-78" value="" style="sketch=0;aspect=fixed;pointerEvents=1;shadow=0;dashed=0;html=1;strokeColor=none;labelPosition=center;verticalLabelPosition=bottom;verticalAlign=top;align=center;fillColor=#00188D;shape=mxgraph.azure.code_file" vertex="1" parent="2syD0o9gHN_ZeusMdBdu-76">
          <mxGeometry x="20" y="100" width="28.2" height="30" as="geometry" />
        </mxCell>
        <mxCell id="2syD0o9gHN_ZeusMdBdu-79" value="" style="sketch=0;aspect=fixed;pointerEvents=1;shadow=0;dashed=0;html=1;strokeColor=none;labelPosition=center;verticalLabelPosition=bottom;verticalAlign=top;align=center;fillColor=#00188D;shape=mxgraph.azure.code_file" vertex="1" parent="2syD0o9gHN_ZeusMdBdu-76">
          <mxGeometry x="20" y="150" width="28.2" height="30" as="geometry" />
        </mxCell>
        <mxCell id="2syD0o9gHN_ZeusMdBdu-80" value="tempalte.js" style="text;html=1;align=center;verticalAlign=middle;resizable=0;points=[];autosize=1;strokeColor=none;fillColor=none;" vertex="1" parent="2syD0o9gHN_ZeusMdBdu-76">
          <mxGeometry x="48.200000000000045" y="40" width="80" height="30" as="geometry" />
        </mxCell>
        <mxCell id="2syD0o9gHN_ZeusMdBdu-81" value="posts.js" style="text;html=1;align=center;verticalAlign=middle;resizable=0;points=[];autosize=1;strokeColor=none;fillColor=none;" vertex="1" parent="2syD0o9gHN_ZeusMdBdu-76">
          <mxGeometry x="48.200000000000045" y="100" width="60" height="30" as="geometry" />
        </mxCell>
        <mxCell id="2syD0o9gHN_ZeusMdBdu-82" value="users.js" style="text;html=1;align=center;verticalAlign=middle;resizable=0;points=[];autosize=1;strokeColor=none;fillColor=none;" vertex="1" parent="2syD0o9gHN_ZeusMdBdu-76">
          <mxGeometry x="48.200000000000045" y="150" width="60" height="30" as="geometry" />
        </mxCell>
        <mxCell id="2syD0o9gHN_ZeusMdBdu-83" value="locals/users.js" style="swimlane;whiteSpace=wrap;html=1;" vertex="1" parent="1">
          <mxGeometry x="1450" y="790" width="200" height="300" as="geometry" />
        </mxCell>
        <mxCell id="2syD0o9gHN_ZeusMdBdu-84" value="&lt;h1 style=&quot;margin-top: 0px;&quot;&gt;&lt;br&gt;&lt;/h1&gt;&lt;div&gt;let ob = {};&lt;/div&gt;&lt;div&gt;&lt;br&gt;&lt;/div&gt;&lt;div&gt;function getAllPosts()&lt;/div&gt;&lt;div&gt;{&lt;/div&gt;&lt;div&gt;}&lt;/div&gt;&lt;div&gt;&lt;br&gt;&lt;/div&gt;&lt;div&gt;&lt;br&gt;&lt;/div&gt;&lt;div&gt;&lt;br&gt;&lt;/div&gt;&lt;div&gt;module.exports = {&lt;/div&gt;&lt;div&gt;&lt;span style=&quot;white-space: pre;&quot;&gt;&#x9;&lt;/span&gt;&lt;span style=&quot;background-color: initial;&quot;&gt;&lt;b style=&quot;&quot;&gt;getAllPosts&lt;/b&gt;&lt;/span&gt;&lt;br&gt;&lt;/div&gt;&lt;div&gt;}&lt;/div&gt;" style="text;html=1;whiteSpace=wrap;overflow=hidden;rounded=0;fillColor=#1ba1e2;fontColor=#ffffff;strokeColor=#006EAF;glass=0;perimeterSpacing=0;spacingLeft=16;" vertex="1" parent="2syD0o9gHN_ZeusMdBdu-83">
          <mxGeometry x="10" y="60" width="180" height="220" as="geometry" />
        </mxCell>
        <mxCell id="2syD0o9gHN_ZeusMdBdu-85" style="edgeStyle=orthogonalEdgeStyle;rounded=0;orthogonalLoop=1;jettySize=auto;html=1;entryX=0;entryY=0.5;entryDx=0;entryDy=0;" edge="1" parent="1" source="2syD0o9gHN_ZeusMdBdu-81" target="2syD0o9gHN_ZeusMdBdu-83">
          <mxGeometry relative="1" as="geometry" />
        </mxCell>
        <mxCell id="2syD0o9gHN_ZeusMdBdu-86" value="&amp;lt;%- posts.getAllPosts() %&amp;gt;" style="text;html=1;align=center;verticalAlign=middle;resizable=0;points=[];autosize=1;strokeColor=none;fillColor=none;" vertex="1" parent="1">
          <mxGeometry x="1245" y="658" width="170" height="30" as="geometry" />
        </mxCell>
      </root>
    </mxGraphModel>
  </diagram>
</mxfile>
